<?xml version="1.0" encoding="UTF-8"?>
<svg id="Layer_1" xmlns="http://www.w3.org/2000/svg" version="1.1" viewBox="0 0 500 500">
  <!-- Generator: Adobe Illustrator 30.4.0, SVG Export Plug-In . SVG Version: 2.1.4 Build 226)  -->
  <defs>
    <style>
      .st0 {
        fill: #1b1919;
      }
    </style>
  </defs>
  <path class="st0" d="M371.05,413.15c-2.36,0-4.49-1.61-5.05-4-.66-2.79,1.07-5.59,3.86-6.25l2.4-.57c2.78-.65,5.59,1.07,6.25,3.86.66,2.79-1.07,5.59-3.86,6.25l-2.4.57c-.4.09-.8.14-1.2.14Z"/>
  <path class="st0" d="M45.48,415.33c-.8,0-1.62-.19-2.38-.58l-2.19-1.13c-2.55-1.32-3.55-4.45-2.23-7.01,1.32-2.55,4.45-3.55,7.01-2.23l2.19,1.13c2.55,1.32,3.55,4.45,2.23,7.01-.92,1.79-2.74,2.81-4.62,2.81Z"/>
  <path class="st0" d="M202.04,157.87c-.81,0-1.63-.3-2.26-.91l-1.55-1.5c-1.29-1.25-1.33-3.3-.08-4.59,1.25-1.29,3.31-1.33,4.59-.08l1.55,1.5c1.29,1.25,1.33,3.3.08,4.59-.64.66-1.49.99-2.34.99Z"/>
  <path class="st0" d="M56.1,382.61c-.5,0-1.01-.12-1.49-.36l-1.92-.99c-1.6-.82-2.22-2.78-1.4-4.38.82-1.6,2.79-2.22,4.38-1.4l1.92.99c1.6.82,2.22,2.78,1.4,4.38-.58,1.12-1.71,1.76-2.89,1.76Z"/>
  <path class="st0" d="M225.3,182.99c-.81,0-1.63-.3-2.26-.91l-1.55-1.5c-1.29-1.25-1.33-3.3-.08-4.59,1.25-1.29,3.31-1.33,4.59-.08l1.55,1.5c1.29,1.25,1.33,3.3.08,4.59-.64.66-1.49.99-2.34.99Z"/>
  <path class="st0" d="M91.52,441.1c-.5,0-1.01-.12-1.49-.36l-1.92-.99c-1.6-.82-2.22-2.78-1.4-4.38.82-1.6,2.79-2.22,4.38-1.4l1.92.99c1.6.82,2.22,2.78,1.4,4.38-.58,1.12-1.71,1.76-2.89,1.76Z"/>
  <path class="st0" d="M139.01,382.61c-.5,0-1.01-.12-1.49-.36l-1.91-.99c-1.59-.82-2.22-2.78-1.39-4.38.82-1.59,2.78-2.22,4.38-1.39l1.91.99c1.59.82,2.22,2.78,1.39,4.38-.58,1.12-1.71,1.76-2.89,1.76Z"/>
  <path class="st0" d="M130.99,197.21c-.78,0-1.56-.28-2.19-.85-1.33-1.21-1.43-3.26-.22-4.59l.81-.89c1.21-1.33,3.27-1.42,4.59-.22,1.33,1.21,1.43,3.26.22,4.59l-.81.89c-.64.71-1.52,1.06-2.4,1.06Z"/>
  <path class="st0" d="M348.42,441.55c-.78,0-1.56-.28-2.19-.85-1.33-1.21-1.43-3.26-.22-4.59l.81-.89c1.21-1.33,3.27-1.42,4.59-.22,1.33,1.21,1.43,3.26.22,4.59l-.81.89c-.64.71-1.52,1.06-2.4,1.06Z"/>
  <path class="st0" d="M388.52,223.93c-.78,0-1.57-.28-2.19-.85-1.33-1.21-1.42-3.26-.21-4.59l.81-.89c1.21-1.33,3.27-1.42,4.59-.21,1.33,1.21,1.42,3.26.21,4.59l-.81.89c-.64.7-1.52,1.06-2.4,1.06Z"/>
  <path class="st0" d="M18.59,385.34c-.47,0-.95-.1-1.4-.32-1.62-.78-2.3-2.72-1.52-4.34l.52-1.08c.78-1.62,2.71-2.3,4.34-1.52,1.62.78,2.3,2.72,1.52,4.34l-.52,1.08c-.56,1.16-1.72,1.84-2.93,1.84Z"/>
  <path class="st0" d="M191.64,210.67c-2.74,0-5.62-.87-8.24-2.95-2.25-1.78-3.61-4.5-3.84-7.65-.26-3.57.96-7.36,3.1-9.64,3.62-3.85,7.11-4.52,9.46-4.43,4.81.21,7.94,3.73,8.78,4.8h0c5.22,6.64,3.16,12.88-.19,16.21-2.21,2.2-5.53,3.65-9.07,3.65ZM191.68,192.48c-1.36,0-2.8.8-4.29,2.39-.77.82-1.51,2.75-1.36,4.72.07.93.37,2.21,1.4,3.04,3.09,2.45,6.71,1.75,8.69-.23,2.01-2,1.89-4.77-.33-7.59-.81-1.03-2.34-2.26-3.96-2.33-.05,0-.1,0-.15,0Z"/>
  <path class="st0" d="M405.51,97.53c3.75-3.26,8.09-6.56,13.85-8.32,2.85-.92,6.1-1.25,9.34-.91,3.34.36,6.14,1.33,9.14,2.94,2.92,1.61,5.81,4.16,7.53,7.44,1.78,3.22,2.55,6.8,2.58,10.05,0,6.57-2.12,12.13-4.76,17.1-2.73,4.96-6.27,9.31-10.71,13.06-1.1.94-2.33,1.8-3.62,2.6-1.15.66-2.26,1.34-3.4,1.95-2.27,1.25-4.56,2.39-6.87,3.48-9.34,4.14-18.76,7.45-28.95,9.15-1.78.3-3.46-.9-3.75-2.68-.26-1.53.6-2.99,1.98-3.56l.15-.06c8.69-3.54,17.43-7.86,25.53-12.59,2.03-1.19,4.04-2.38,5.96-3.67.97-.62,1.91-1.31,2.83-1.94.73-.58,1.48-1.18,2.21-1.86,2.93-2.7,5.43-6.26,7.34-9.92,1.92-3.64,3.08-7.65,3.04-10.91.04-1.64-.3-2.99-.84-4.08-.55-1.08-1.34-2.04-2.62-2.92-1.23-.85-3.1-1.61-4.58-2.05-1.59-.43-3.32-.52-5.25-.37-3.85.39-8.17,1.98-12.82,3.67-1.71.62-3.61-.26-4.23-1.98-.48-1.32-.05-2.76.95-3.63Z"/>
  <path class="st0" d="M380.01,159.82c-6.56-7.59-11.59-16.03-15.77-25.13-4.05-9.12-7.16-19.03-7.06-30.11.02-2.76.36-5.62,1.04-8.48l.61-2.15c.27-.76.54-1.52.88-2.25.65-1.47,1.44-2.87,2.39-4.19,1.87-2.61,4.3-4.98,7.36-6.55,3.01-1.61,6.67-2.38,10.15-2.02,3.5.3,6.6,1.77,9.11,3.51,2.5,1.78,4.49,3.88,6.12,6.09,3.25,4.42,5.29,9.19,6.8,13.98.54,1.72-.42,3.56-2.14,4.1-1.46.46-2.99-.16-3.76-1.4l-.04-.07c-2.42-3.92-4.99-7.65-7.93-10.54-1.49-1.41-3.01-2.63-4.56-3.43-1.54-.77-3.03-1.14-4.32-1.11-2.53.03-4.94,1.69-6.64,4.35-.42.65-.76,1.37-1.03,2.11-.15.36-.25.74-.36,1.12l-.29,1.32c-.35,1.81-.6,3.72-.57,5.75,0,4.04.72,8.31,1.72,12.59,1.01,4.29,2.27,8.64,3.77,12.96,2.91,8.66,6.56,17.36,10.03,26.07l.06.14c.67,1.68-.15,3.59-1.84,4.26-1.33.53-2.81.12-3.7-.9Z"/>
  <path class="st0" d="M306.72,342.25c.21,15.04-2.52,30.18-8.12,44.25-5.57,14.08-13.99,27.05-24.53,38.04-10.57,10.97-23.35,19.89-37.42,26.02-14.08,6.14-29.45,9.38-44.87,9.64-30.92.67-62.02-11.97-83.93-34.03-11.03-10.95-19.73-24.19-25.64-38.54-5.94-14.36-8.85-29.92-8.75-45.39.11-31.04,13.43-61.52,35.47-82.84,10.99-10.7,24.11-19.12,38.28-24.73,14.18-5.62,29.42-8.35,44.56-8.13,15.13.24,30.21,3.38,44.06,9.33,13.86,5.93,26.48,14.61,36.97,25.34,20.94,21.44,33.58,50.86,33.91,81.02ZM299.26,342.25c.14-14.07-2.39-28.22-7.72-41.32-5.3-13.1-13.4-25.08-23.52-34.92-10.12-9.85-22.15-17.67-35.19-22.87-13.04-5.21-27.07-7.8-41.05-7.61-13.98.28-27.84,3.27-40.55,8.82-12.73,5.52-24.26,13.6-33.88,23.47-9.59,9.9-17.19,21.66-22.23,34.39-5.05,12.73-7.5,26.39-7.44,40.03.15,13.65,2.97,27.19,8.19,39.72,5.22,12.55,13.01,23.97,22.56,33.62,9.59,9.63,21.09,17.32,33.58,22.65,12.52,5.28,26.07,8.18,39.76,8.46,27.39.5,54.93-10.16,74.98-29.48,20.16-19.2,32.11-46.79,32.5-74.98Z"/>
  <path class="st0" d="M192.68,434.62c-11.9,0-23.45-2.32-34.33-6.89-1.65-.7-2.43-2.6-1.74-4.25.7-1.65,2.59-2.43,4.25-1.74,10.08,4.24,20.78,6.39,31.82,6.39,16.93,0,33.18-5.1,47-14.76,1.47-1.03,3.49-.67,4.52.8,1.03,1.47.67,3.49-.8,4.52-14.92,10.42-32.46,15.93-50.72,15.93Z"/>
  <path class="st0" d="M116.9,397.04c-.98,0-1.96-.45-2.6-1.29-11.98-15.89-18.32-34.83-18.32-54.79,0-40.11,25.71-75.06,63.99-86.97,1.71-.54,3.54.42,4.07,2.14.53,1.71-.42,3.53-2.14,4.07-35.54,11.06-59.42,43.51-59.42,80.76,0,18.53,5.88,36.13,17.01,50.88,1.08,1.43.79,3.47-.64,4.55-.59.44-1.27.65-1.95.65Z"/>
  <path class="st0" d="M446.07,293.09c-4.11,14.49-11.07,28.25-20.47,40.15-9.39,11.91-21.17,21.97-34.45,29.52-13.3,7.5-28.12,12.43-43.41,14.27-15.29,1.82-30.98.56-45.87-3.62-14.91-4.18-28.94-11.53-41.08-21.24-12.08-9.79-22.23-21.96-29.58-35.66-7.32-13.71-11.94-28.86-13.45-44.32-1.47-15.47.19-31.19,4.73-45.97,4.66-14.75,12.2-28.56,22.11-40.35,9.89-11.8,22.08-21.6,35.66-28.65,13.59-7.03,28.52-11.36,43.67-12.65,15.16-1.33,30.49.49,44.92,4.93,14.41,4.52,27.92,11.85,39.47,21.5,11.58,9.62,21.1,21.57,28.16,34.77,7.01,13.23,11.55,27.76,13.23,42.66,1.74,14.9.47,30.17-3.64,44.67ZM438.54,290.84c4.19-13.42,5.78-27.67,4.52-41.73-1.27-14.06-5.47-27.88-12.27-40.28-13.59-24.88-37.39-43.59-64.38-51.21-27-7.77-56.69-4.03-80.75,9.62-12.04,6.79-22.71,15.89-31.19,26.67-8.5,10.77-14.78,23.19-18.52,36.33-7.61,26.25-4.42,55.2,8.61,79.05,12.88,23.96,35.3,42.36,61.35,50.58,26.02,8.34,55.37,5.98,80.06-6.7,24.79-12.53,44.1-35.5,52.56-62.33Z"/>
  <path class="st0" d="M335.71,355.16c-2.79,0-5.59-.12-8.39-.36-1.79-.15-3.11-1.73-2.96-3.52.15-1.79,1.74-3.09,3.52-2.96,17.03,1.47,34.11-1.88,49.4-9.71,21.73-11.11,37.84-30.03,45.35-53.26,7.51-23.23,5.52-47.99-5.6-69.73-.82-1.6-.18-3.56,1.41-4.37,1.6-.81,3.55-.19,4.37,1.41,11.91,23.28,14.03,49.81,5.99,74.69-8.04,24.88-25.29,45.14-48.57,57.05-13.87,7.09-29.11,10.76-44.53,10.76Z"/>
  <path class="st0" d="M257.26,222.02c-.51,0-1.03-.12-1.51-.37-1.59-.84-2.2-2.8-1.36-4.39,9.42-17.9,23.95-32.24,42.02-41.48,16.31-8.34,34.54-11.95,52.69-10.41,1.79.15,3.12,1.72,2.96,3.51-.15,1.79-1.76,3.16-3.51,2.96-16.95-1.42-33.96,1.94-49.19,9.73-16.87,8.63-30.43,22.02-39.23,38.72-.58,1.11-1.71,1.74-2.88,1.74Z"/>
  <path class="st0" d="M323.09,115.76c-1.6,0-2.99-1.18-3.21-2.81-.24-1.78,1-3.41,2.78-3.65,5.53-.75,18.73-2.39,22.07-1.39,1.72.52,2.69,2.32,2.18,4.05-.51,1.72-2.31,2.7-4.05,2.18-1.75-.38-11.42.53-19.33,1.6-.15.02-.29.03-.44.03Z"/>
  <path class="st0" d="M346.29,87.57c-.53,0-1.06-.13-1.56-.4l-17.63-9.66c-1.57-.86-2.15-2.84-1.29-4.41.86-1.58,2.84-2.15,4.41-1.29l17.63,9.66c1.57.86,2.15,2.84,1.29,4.41-.59,1.08-1.7,1.69-2.85,1.69Z"/>
  <path class="st0" d="M376.8,68.16c-1.22,0-2.38-.69-2.94-1.86l-9.08-19.18c-.77-1.62-.08-3.56,1.55-4.33,1.63-.77,3.56-.07,4.33,1.55l9.08,19.18c.77,1.62.08,3.56-1.55,4.33-.45.21-.92.31-1.39.31Z"/>
  <path class="st0" d="M415.32,65.41c-.31,0-.62-.04-.93-.14-1.72-.51-2.7-2.32-2.18-4.04l5.73-19.14c.52-1.72,2.31-2.7,4.04-2.18,1.72.51,2.7,2.32,2.18,4.04l-5.73,19.14c-.42,1.41-1.71,2.32-3.11,2.32Z"/>
  <path class="st0" d="M453.37,96.55c-1.46,0-2.79-1-3.15-2.48-.42-1.74.65-3.5,2.39-3.92l21.3-5.15c1.73-.43,3.5.65,3.92,2.39.42,1.74-.65,3.5-2.39,3.92l-21.3,5.15c-.26.06-.51.09-.77.09Z"/>
  <path class="st0" d="M481.41,142.26c-.43,0-.87-.08-1.29-.27l-24.79-10.71c-1.65-.71-2.4-2.62-1.69-4.27.71-1.64,2.61-2.41,4.27-1.69l24.79,10.71c1.65.71,2.4,2.62,1.69,4.27-.53,1.23-1.73,1.96-2.98,1.96Z"/>
  <path class="st0" d="M455.21,176.65c-.92,0-1.84-.39-2.48-1.15l-11.76-13.91c-1.16-1.37-.98-3.42.39-4.58,1.37-1.16,3.42-.99,4.58.39l11.76,13.91c1.16,1.37.98,3.42-.39,4.58-.61.52-1.35.77-2.09.77Z"/>
</svg>