<?xml version="1.0" encoding="UTF-8"?>
<svg id="Layer_1" xmlns="http://www.w3.org/2000/svg" version="1.1" viewBox="0 0 500 500">
  <!-- Generator: Adobe Illustrator 30.4.0, SVG Export Plug-In . SVG Version: 2.1.4 Build 226)  -->
  <defs>
    <style>
      .st0 {
        fill: #1b1919;
      }
    </style>
  </defs>
  <path class="st0" d="M53.2,223.23c-.67,0-1.35-.15-1.99-.48l-1.73-.89c-2.12-1.1-2.95-3.71-1.86-5.83,1.1-2.12,3.71-2.95,5.83-1.86l1.73.89c2.12,1.1,2.95,3.71,1.86,5.83-.77,1.49-2.28,2.34-3.85,2.34Z"/>
  <path class="st0" d="M310,278.4c-.67,0-1.35-.15-1.98-.48l-1.73-.89c-2.12-1.1-2.96-3.71-1.86-5.83,1.1-2.12,3.71-2.96,5.83-1.86l1.73.89c2.12,1.1,2.96,3.71,1.86,5.83-.77,1.49-2.28,2.34-3.85,2.34Z"/>
  <path class="st0" d="M415.37,290.45c-.63,0-1.27-.14-1.87-.42-2.16-1.03-3.07-3.62-2.03-5.77l.47-.98c1.03-2.16,3.62-3.07,5.77-2.03,2.16,1.03,3.07,3.62,2.03,5.77l-.47.98c-.74,1.55-2.29,2.46-3.91,2.46Z"/>
  <path class="st0" d="M324.14,431.97c-.63,0-1.26-.14-1.87-.42-2.16-1.03-3.07-3.62-2.04-5.77l.47-.98c1.03-2.16,3.62-3.07,5.77-2.04,2.16,1.03,3.07,3.62,2.04,5.77l-.47.98c-.74,1.55-2.29,2.46-3.91,2.46Z"/>
  <path class="st0" d="M98.01,91.95c-.42,0-.84-.1-1.24-.3l-1.51-.78c-1.33-.69-1.85-2.32-1.16-3.65.69-1.33,2.32-1.85,3.65-1.16l1.51.78c1.33.69,1.85,2.32,1.16,3.65-.48.93-1.43,1.46-2.41,1.46Z"/>
  <path class="st0" d="M86.41,214.58c-.42,0-.84-.1-1.24-.3l-1.51-.78c-1.33-.69-1.85-2.32-1.16-3.65.69-1.33,2.32-1.85,3.65-1.16l1.51.78c1.33.69,1.85,2.32,1.16,3.65-.48.93-1.43,1.46-2.41,1.46Z"/>
  <path class="st0" d="M354.39,450.13c-.42,0-.84-.1-1.24-.3l-1.51-.78c-1.33-.69-1.85-2.32-1.16-3.65.69-1.33,2.32-1.85,3.65-1.16l1.51.78c1.33.69,1.85,2.32,1.16,3.65-.48.93-1.43,1.46-2.41,1.46Z"/>
  <path class="st0" d="M315.67,140.85c-.42,0-.84-.1-1.24-.3l-1.51-.78c-1.33-.68-1.85-2.32-1.17-3.64.68-1.33,2.32-1.85,3.64-1.17l1.51.78c1.33.68,1.85,2.32,1.17,3.64-.48.93-1.43,1.47-2.41,1.47Z"/>
  <path class="st0" d="M41.02,190.29c-.42,0-.84-.1-1.24-.3l-1.51-.78c-1.33-.68-1.85-2.32-1.16-3.65.68-1.33,2.31-1.85,3.64-1.16l1.51.78c1.33.68,1.85,2.32,1.16,3.65-.48.93-1.43,1.46-2.41,1.46Z"/>
  <path class="st0" d="M8.12,206.26c-.39,0-.79-.08-1.17-.27-1.35-.65-1.91-2.26-1.26-3.61l.41-.85c.65-1.34,2.26-1.92,3.61-1.26,1.35.65,1.91,2.26,1.26,3.61l-.41.85c-.47.97-1.43,1.53-2.44,1.53Z"/>
  <path class="st0" d="M410.25,315.48c-.39,0-.79-.08-1.16-.26-1.35-.64-1.92-2.26-1.27-3.61l.41-.85c.64-1.35,2.26-1.92,3.61-1.27,1.35.64,1.92,2.26,1.27,3.61l-.41.85c-.46.97-1.43,1.54-2.44,1.54Z"/>
  <path class="st0" d="M434.58,436.48c-.39,0-.79-.08-1.16-.26-1.35-.64-1.92-2.26-1.27-3.61l.41-.85c.64-1.35,2.26-1.91,3.61-1.27,1.35.64,1.92,2.26,1.27,3.61l-.41.85c-.46.97-1.43,1.54-2.44,1.54Z"/>
  <path class="st0" d="M281.84,430.7c-1.47,0-3-.28-4.57-.9-2.38-.95-4.25-2.93-5.25-5.58-1.15-3.01-1.07-6.59.18-9.11,1.71-3.42,4.06-5.53,7-6.26,4.18-1.06,7.79,1.17,8.79,1.88h0c6.21,4.38,6.05,10.27,4.03,14-1.79,3.3-5.65,5.97-10.18,5.97ZM281.46,413.98c-.31,0-.63.03-.93.11-1.34.34-2.51,1.49-3.48,3.44-.49.98-.64,2.98.03,4.76.33.86.97,1.98,2.2,2.48,3.54,1.41,6.69-.25,7.99-2.63,1.33-2.44.45-4.99-2.39-6.99h0c-.83-.59-2.14-1.17-3.42-1.17Z"/>
  <path class="st0" d="M134.25,107.57c-1.04,0-2.09-.19-3.12-.6-1.71-.68-3.04-2.09-3.75-3.95-.79-2.07-.73-4.54.15-6.3,1.46-2.91,3.46-3.95,4.89-4.31,2.95-.74,5.44.8,6.13,1.29h0c4.01,2.83,4.26,6.94,2.73,9.76-1.42,2.61-4.15,4.12-7.04,4.12ZM134.03,97.62c-.1,0-.2.01-.29.03-.59.15-1.07.89-1.37,1.48-.16.31-.23,1.19.07,1.96.12.31.33.7.7.85,1.7.68,2.96-.27,3.39-1.07.64-1.19-.24-2.15-1.09-2.75h0c-.31-.22-.9-.5-1.41-.5Z"/>
  <path class="st0" d="M205.61,71.9c-.07,0-.14,0-.21,0-1.49-.11-2.6-1.42-2.49-2.91.52-6.76-6.39-14.97-9.1-17.56-1.08-1.03-1.12-2.75-.08-3.83,1.04-1.08,2.74-1.12,3.83-.08.47.45,11.58,11.21,10.75,21.89-.11,1.42-1.3,2.5-2.69,2.5Z"/>
  <path class="st0" d="M444.42,166.95c-1.12,0-2.16-.7-2.55-1.81-.49-1.41.25-2.95,1.66-3.45.74-.26,18.17-6.23,31.2-.89,1.38.57,2.04,2.15,1.48,3.53-.57,1.39-2.16,2.05-3.53,1.48-11.15-4.57-27.2.94-27.36,1-.3.1-.6.15-.89.15Z"/>
  <path class="st0" d="M53.22,149.91c3.49-.65,6.81-1.03,10.26-1.28,3.43-.23,6.89-.31,10.38-.12,3.49.21,7.02.62,10.56,1.44,3.54.87,7.09,2.13,10.51,4.06,2.31,1.3,3.12,4.23,1.82,6.53-1.3,2.31-4.23,3.12-6.53,1.82-.14-.08-.28-.17-.41-.26l-.08-.05c-2.23-1.58-4.84-2.87-7.66-3.89-2.85-.98-5.88-1.67-8.97-2.19-3.11-.5-6.29-.76-9.49-.88-3.18-.11-6.48-.07-9.57.18h-.1c-1.49.13-2.79-.98-2.92-2.47-.11-1.39.86-2.62,2.2-2.88Z"/>
  <path class="st0" d="M180.51,131.52c-2.54,0-5.12-.53-7.67-1.61-12.9-5.45-21.15-22.57-19.62-40.71.12-1.49,1.46-2.63,2.92-2.47,1.49.12,2.6,1.43,2.47,2.92-1.5,17.8,7.3,31.46,16.34,35.27,6.26,2.65,12.61.76,17.88-5.3,6.21-7.15,7.42-17.14,3.33-27.41-4.87-12.23-15.68-21.5-26.27-22.54-6.89-.68-10.06-.03-11.09.45.48.85,2.39,3.25,9.98,7.81,21.17,12.7,16.83,36.76,16.78,37-.28,1.47-1.71,2.44-3.17,2.15-1.46-.28-2.43-1.7-2.15-3.16.16-.85,3.62-20.62-14.25-31.34-10.07-6.04-13.82-10.29-12.53-14.19,1.23-3.75,6.77-5.08,16.95-4.09,12.53,1.23,25.18,11.89,30.77,25.93,4.87,12.22,3.31,24.23-4.28,32.96-4.77,5.49-10.49,8.35-16.39,8.35Z"/>
  <path class="st0" d="M95.45,252.24c5.16-2.83,10.34-4.77,15.81-6.4,5.45-1.54,11.08-2.65,16.82-3.08,11.44-.96,23.5.8,34.25,5.93,5.41,2.48,10.34,5.93,14.7,9.88,4.37,3.95,8.19,8.45,11.3,13.3,6.35,9.66,10.46,20.37,12.76,31.25.37,1.76-.76,3.49-2.52,3.86-1.56.33-3.09-.52-3.68-1.94-4.09-9.81-8.86-19.15-14.95-27.26-1.47-2.08-3.17-3.91-4.79-5.83-.85-.92-1.77-1.76-2.64-2.64-.86-.91-1.8-1.7-2.75-2.5-1.82-1.68-3.85-3.06-5.84-4.5-2.1-1.26-4.18-2.54-6.4-3.59-8.81-4.29-18.8-6.09-28.96-5.95-10.11.16-20.64,2.11-30.31,5.32l-.21.07c-1.7.57-3.54-.36-4.11-2.06-.5-1.51.17-3.13,1.52-3.87Z"/>
  <path class="st0" d="M138.14,233.01c-3.2,0-6.51-.45-9.72-1.6-7.52-2.69-13.09-8.61-16.55-17.61-10.57-27.49-26.09-30.56-26.75-30.68-1.43-.26-2.53-1.43-2.67-2.88-.14-1.44.67-2.81,2.02-3.34,42.39-16.71,58.61,15.21,58.77,15.53.79,1.61.12,3.56-1.49,4.34-1.61.79-3.55.12-4.34-1.48-.51-1.03-11.97-23.07-42.64-14.98,6.75,4.14,16.13,12.88,23.16,31.15,2.75,7.15,7.01,11.8,12.65,13.82,11.78,4.22,26.23-3.81,26.38-3.89,1.56-.89,3.54-.34,4.42,1.22.88,1.56.34,3.54-1.22,4.42-.54.31-10.66,5.97-22.02,5.97Z"/>
  <path class="st0" d="M438.88,281.38c1.52.85,3.51,1.76,5.4,2.35,1.91.67,3.88,1.08,5.86,1.41,3.95.57,7.95.27,11.62-1,.96-.21,1.8-.71,2.69-1.11.89-.4,1.78-.8,2.56-1.41.81-.56,1.65-1.07,2.44-1.67l2.21-2.03c.36-.35.76-.65,1.09-1.03l.97-1.18,1.95-2.36c1.16-1.7,2.22-3.5,3.34-5.24l4.17,4.53h-.03c-.8.41-1.22.56-1.79.78-.53.18-1.06.36-1.59.51-1.05.29-2.11.46-3.16.62-2.09.27-4.19.3-6.23.16-2.06-.1-4.06-.45-6.04-.86l-2.94-.7c-.95-.28-1.9-.6-2.85-.91-1.88-.64-3.7-1.4-5.52-2.16-1.75-.85-3.57-1.66-5.23-2.64-1.68-.97-3.41-1.88-5-2.95l-4.56-3.03c-2.64-1.71-5.35-3.04-7.9-3.69-2.55-.63-4.9-.75-7.22.04-2.35.68-4.74,2.25-6.98,4.37-2.21,2.08-4.34,4.86-6.12,7.45l-.23.34c-1.02,1.49-3.05,1.86-4.54.84-1.12-.77-1.6-2.1-1.35-3.35.87-4.2,2.44-7.8,4.82-11.38,2.36-3.5,5.74-6.77,10.17-8.8,2.21-.97,4.64-1.63,7.09-1.82,2.44-.2,4.87.02,7.14.52,4.56,1.03,8.41,3.14,11.82,5.47l4.47,3.13c1.37,1.06,2.82,1.93,4.24,2.89,2.88,1.82,5.8,3.51,8.8,4.94,3,1.46,6.07,2.6,9.18,3.41,1.56.43,3.11.65,4.66.85.77.07,1.53.1,2.28.11l1.09-.02c.31,0,.77-.09.81-.04h0s4.17,4.53,4.17,4.53c-1.26,1.98-2.45,4-3.79,5.94l-2.27,2.77-1.14,1.38c-.39.45-.87.83-1.31,1.25l-2.68,2.45c-.97.74-2.02,1.39-3.03,2.09-.98.74-2.1,1.27-3.23,1.78-1.13.51-2.22,1.11-3.43,1.41-4.69,1.62-9.78,1.97-14.57,1.27-2.39-.39-4.76-.9-7.03-1.68-2.32-.76-4.4-1.66-6.73-2.98-1.56-.88-2.11-2.86-1.23-4.42.88-1.56,2.86-2.11,4.42-1.23l.2.11Z"/>
  <path class="st0" d="M197.99,307.33c-1.61,0-3.01-1.2-3.22-2.84-10.46-82.52-62.83-99.41-63.36-99.57-1.71-.52-2.68-2.33-2.16-4.05.52-1.71,2.32-2.68,4.04-2.17,2.32.7,56.9,18.03,67.93,104.97.23,1.78-1.03,3.4-2.81,3.63-.14.02-.28.03-.41.03Z"/>
  <path class="st0" d="M166.32,189.9c-.1,0-.19,0-.29-.01-1.79-.16-3.1-1.73-2.95-3.52.14-1.6,2.75-38.02-34.65-59.04-14.55-8.18-23-9.25-31.18-10.29-1.97-.25-3.9-.49-5.86-.83,5.88,6.64,13.41,16.35,18.29,27.17,7.85,17.42,16.86,20.81,34.1,21.8,1.79.1,3.16,1.64,3.05,3.43-.1,1.79-1.58,3.19-3.43,3.05-19.14-1.1-30.52-5.37-39.64-25.61-8.27-18.35-25.32-33.89-25.49-34.04-1.18-1.07-1.41-2.84-.55-4.18.87-1.34,2.58-1.85,4.04-1.2,6.02,2.66,10.79,3.27,16.31,3.97,8.39,1.06,17.89,2.27,33.55,11.07,41.17,23.15,37.97,64.86,37.93,65.27-.15,1.69-1.57,2.96-3.23,2.96Z"/>
  <path class="st0" d="M267.24,184.96c-.66,0-1.31-.2-1.89-.61-1.46-1.04-1.79-3.07-.75-4.53,16.24-22.67,19.56-61.28,19.59-61.67.15-1.79,1.69-3.09,3.5-2.97,1.79.15,3.12,1.71,2.97,3.5-.14,1.65-3.49,40.77-20.78,64.92-.63.89-1.63,1.36-2.64,1.36Z"/>
  <path class="st0" d="M203.19,175.8c-1.79,0-3.24-1.45-3.25-3.24,0-.18-.16-18.38-10.31-44.96-.64-1.68.2-3.55,1.87-4.19,1.67-.64,3.55.2,4.19,1.87,10.61,27.8,10.73,46.49,10.73,47.28,0,1.79-1.45,3.24-3.24,3.24h0Z"/>
  <path class="st0" d="M211.47,340.64c-.31,0-.62-.04-.93-.14-1.72-.51-2.7-2.32-2.19-4.03.92-3.1,23.1-76.36,70.54-109.37,1.47-1.02,3.49-.66,4.52.81,1.02,1.47.66,3.49-.81,4.52-45.56,31.7-67.8,105.14-68.02,105.88-.42,1.41-1.71,2.32-3.11,2.32Z"/>
  <path class="st0" d="M217.23,330.99c1.67-5.11,3.63-9.88,5.87-14.64,2.21-4.75,4.69-9.37,7.37-13.9,5.38-9.04,11.66-17.66,19.1-25.43,3.66-3.95,7.76-7.52,12.11-10.87,4.35-3.32,8.98-6.44,14.12-8.7,5.11-2.29,10.57-3.99,16.19-4.62,5.63-.55,11.33-.25,16.66,1.29,1.76.51,2.78,2.35,2.27,4.11-.35,1.22-1.34,2.08-2.5,2.33l-.19.04c-4.88,1.02-9.42,2.05-13.8,3.57-4.38,1.48-8.54,3.4-12.62,5.54-8.17,4.26-15.85,9.98-22.76,16.74-6.97,6.7-13.32,14.26-19.26,22.21-5.9,7.94-11.51,16.39-16.59,24.9l-.07.12c-.92,1.55-2.92,2.05-4.47,1.13-1.33-.79-1.89-2.39-1.43-3.81Z"/>
  <path class="st0" d="M220.21,356.48c-.49,0-.99-.11-1.46-.35-1.6-.81-2.24-2.76-1.43-4.36,1.51-2.98,37.54-72.85,91.87-60.04,1.75.41,2.83,2.16,2.42,3.9-.41,1.74-2.15,2.83-3.9,2.42-49.33-11.6-84.24,55.97-84.58,56.65-.57,1.13-1.71,1.78-2.9,1.78Z"/>
  <path class="st0" d="M365.01,384.83c-.76,0-1.53-.27-2.15-.81-34.53-30.54-64.92-44.06-90.35-40.15-22.75,3.49-33.19,20.41-33.29,20.58-.93,1.53-2.92,2.03-4.45,1.11-1.54-.92-2.04-2.91-1.12-4.44.48-.8,11.96-19.63,37.73-23.65,27.46-4.28,59.68,9.74,95.79,41.68,1.34,1.19,1.47,3.24.28,4.58-.64.72-1.54,1.09-2.43,1.09Z"/>
  <path class="st0" d="M224.44,364.02c-.57,0-1.15-.15-1.68-.47-1.53-.93-2.02-2.92-1.1-4.45.8-1.32,20.01-32.46,58.27-40.11,29.32-5.86,61.36,3.77,95.23,28.62,1.45,1.06,1.76,3.09.7,4.54-1.06,1.45-3.1,1.75-4.54.7-32.31-23.7-62.61-32.96-90.03-27.51-35.44,7.04-53.89,36.82-54.07,37.12-.61,1.01-1.68,1.56-2.78,1.56Z"/>
  <path class="st0" d="M200.38,336.3c-.46,0-.92-.1-1.36-.3-1.63-.75-2.33-2.68-1.58-4.31,12.73-27.48,20.62-70.25,20.62-94.11,0-1.79,1.45-3.25,3.25-3.25s3.25,1.45,3.25,3.25c0,25.09-7.94,68.17-21.22,96.84-.55,1.18-1.72,1.88-2.95,1.88Z"/>
  <path class="st0" d="M221.31,240.82c-.19,0-.37-.01-.56-.05-13.7-2.4-23.49-8.22-29.09-17.3-8.71-14.12-3.87-30.75-3.65-31.46.52-1.72,2.33-2.69,4.04-2.17,1.71.52,2.69,2.32,2.18,4.04-.07.23-4.18,14.66,2.99,26.23,4.59,7.4,12.88,12.2,24.66,14.26,1.77.31,2.95,1.99,2.64,3.76-.28,1.58-1.65,2.69-3.19,2.69Z"/>
  <path class="st0" d="M228.32,234.69c.92-.92,2.16-2.09,3.16-3.2,1.05-1.14,2.05-2.31,3-3.52,1.9-2.41,3.57-4.97,4.96-7.67,2.81-5.4,4.11-11.55,4.1-17.81,0-1.57-.09-3.15-.25-4.72-.1-.76-.15-1.64-.26-2.32-.09-.68-.25-1.34-.41-2-.75-2.6-2.25-5-4.35-7.03-4.2-4.05-10.44-6.85-16.51-8.3l2.49-3.84c2.43,4.22,3.98,8.43,5.16,12.93,1.13,4.47,1.68,9.11,1.56,13.76-.15,4.65-1.01,9.29-2.58,13.68-1.59,4.38-3.87,8.49-6.61,12.21-.83,1.12-2.42,1.36-3.54.53-1.12-.83-1.36-2.42-.53-3.54v-.02c2.49-3.36,4.51-7.02,5.92-10.9,1.39-3.89,2.16-7.99,2.29-12.13.11-4.14-.38-8.31-1.41-12.36-1.02-4-2.59-8.1-4.55-11.5-.71-1.23-.28-2.8.94-3.5.4-.23.84-.34,1.27-.34h.28s0,0,0,0c3.78.39,7.19,1.26,10.68,2.55,3.44,1.29,6.83,3.05,9.8,5.62,2.98,2.52,5.51,5.92,6.9,9.82.33.98.62,1.97.82,2.97.22,1,.33,1.83.48,2.76.25,1.81.42,3.65.49,5.5.36,7.38-1.1,15.05-4.46,21.86-1.67,3.41-3.86,6.56-6.49,9.26-1.32,1.35-2.74,2.59-4.26,3.71-1.58,1.11-3.05,2.06-5.06,2.9-1.57.66-3.37-.08-4.03-1.64-.5-1.19-.2-2.51.66-3.37l.34-.34Z"/>
  <path class="st0" d="M205.41,220.47c-1.46,0-2.79-1-3.15-2.48-9.1-37.44,11.41-44.67,12.28-44.96,1.71-.56,3.54.36,4.1,2.07.56,1.69-.35,3.51-2.04,4.09-.72.26-15.62,6.08-8.04,37.27.42,1.74-.65,3.5-2.39,3.92-.26.06-.52.09-.77.09Z"/>
  <path class="st0" d="M338.63,130.9c-1.24,0-2.42-.71-2.96-1.91-8.4-18.67-3.23-37.74,14.94-55.16,4.3-4.12,8.28-4.27,10.86-3.69,8.47,1.93,13.33,14.29,13.86,15.7.63,1.68-.22,3.55-1.9,4.18-1.67.63-3.55-.22-4.18-1.89-1.53-4.04-5.38-10.78-9.23-11.65-.55-.12-2.25-.52-4.93,2.04-16.24,15.56-20.78,31.64-13.51,47.81.74,1.63,0,3.56-1.63,4.29-.43.19-.88.29-1.33.29Z"/>
  <path class="st0" d="M350.61,125.83c-.41-4.18-.24-7.96.4-11.93.66-3.91,1.85-7.81,3.73-11.5,1.93-3.64,4.53-7.09,7.88-9.71,3.32-2.64,7.17-4.53,11.1-5.7,3.95-1.18,7.97-1.69,11.93-1.84,3.99-.05,7.73.11,11.92.84,4.07.9,8.42,2.45,12,5.84.43.43.9.83,1.29,1.3l1.1,1.51c.78.98,1.24,2.15,1.76,3.29.56,1.13.69,2.35,1.02,3.53.22,1.18.23,2.36.32,3.54-.04,4.67-1.41,8.87-3.27,12.58-1.88,3.73-4.27,7.04-6.95,10.06-5.39,6-12.13,10.57-19.48,13.69-7.41,2.97-15.54,4.42-23.51,3.62-7.97-.65-15.63-3.38-22.21-7.46-1.53-.95-2-2.95-1.05-4.48.88-1.42,2.67-1.92,4.14-1.23h.02c6.28,2.95,12.94,4.59,19.6,4.84,6.67.29,13.27-1.28,19.39-3.84,3-1.43,5.98-2.95,8.67-4.92,2.67-1.98,5.26-4.1,7.46-6.55,2.21-2.44,4.14-5.09,5.59-7.89,1.45-2.79,2.35-5.77,2.38-8.45,0-2.69-.85-4.87-2.6-6.56-1.74-1.71-4.48-2.88-7.51-3.57-3.02-.62-6.61-.92-9.94-.96-3.35.03-6.66.37-9.76,1.2-3.1.83-5.97,2.15-8.44,4-2.47,1.85-4.52,4.25-6.15,6.99-3.19,5.49-4.53,12.64-4.38,19.12v.27c.05,1.79-1.37,3.27-3.16,3.31-1.7.04-3.13-1.25-3.3-2.92Z"/>
  <path class="st0" d="M407.42,408.23c-1.03,0-2.09-.09-3.2-.27-19.64-3.21-35.95-30.82-34.21-57.93.11-1.79,1.67-3.14,3.45-3.03,1.79.11,3.15,1.66,3.03,3.45-1.51,23.6,12.48,48.44,28.78,51.1,3.01.49,5.29,0,6.94-1.48,4.03-3.62,3.7-12,3.69-12.08-.1-1.79,1.27-3.32,3.06-3.42,1.81-.07,3.32,1.28,3.42,3.06.03.47.55,11.53-5.84,17.27-2.47,2.22-5.53,3.33-9.13,3.33Z"/>
  <path class="st0" d="M391.42,353.52c2.23,6.09,6.08,12.24,10.98,16.17,4.96,4,11.05,5.57,17.32,4.85,3.13-.34,6.29-1.21,9.39-2.37,3.06-1.2,6.3-2.75,8.83-4.36,2.5-1.7,4.52-3.72,5.41-5.77.91-2.02.94-4.07.04-6.42-.93-2.32-2.75-4.69-5.03-6.71-2.28-2.03-4.97-3.78-7.82-5.26-5.75-2.93-12.27-4.53-18.75-4.83-6.48-.12-12.97.75-18.99,3.19-6.08,2.3-11.73,5.89-17.12,10.35l-.05.04c-1.4,1.16-3.47.96-4.62-.43-.93-1.12-.98-2.68-.25-3.84,4.17-6.62,10.41-12.16,17.71-15.84,7.3-3.73,15.67-5.2,23.79-4.9,8.14.43,16.14,2.46,23.43,6.22,3.64,1.9,7.11,4.22,10.23,7.14,3.1,2.91,5.93,6.46,7.65,11,.35,1.19.75,2.34.97,3.57.12,1.28.42,2.51.29,3.83-.09,1.3-.12,2.62-.53,3.87l-.53,1.88c-.22.6-.52,1.16-.8,1.74-2.3,4.6-5.96,7.61-9.54,9.89-3.74,2.19-7.2,3.64-11,5-3.81,1.24-7.81,2.15-11.98,2.4-4.15.25-8.49-.18-12.56-1.58-4.08-1.37-7.75-3.72-10.84-6.5-3.05-2.83-5.52-6.1-7.49-9.57-1.96-3.52-3.4-7.03-4.44-11.1-.44-1.73.6-3.5,2.34-3.94,1.62-.41,3.27.47,3.84,2.01l.1.28Z"/>
  <path class="st0" d="M331.75,154.37c-5,1.23-10.18,3.02-15.06,5.07-4.92,2.06-9.66,4.47-14.11,7.28-8.92,5.49-16.67,12.89-20.75,21.97-1.98,4.54-3.06,9.42-3.13,14.4-.02,1.25-.05,2.49.11,3.75.12,1.25.16,2.51.43,3.75.39,2.51.92,4.99,1.73,7.3,1.58,4.63,4.18,8.56,7.84,10.62,3.64,2.1,8.4,2.36,13.21,1.52,4.83-.88,9.68-2.76,14.31-5.13,4.64-2.38,9.1-5.24,13.3-8.43,4.19-3.19,8.18-6.71,11.58-10.54,1.67-1.89,3.26-3.95,4.16-5.75.22-.43.36-.84.41-1.05.04-.13.02-.13.04-.11-.01.06,0,.15.03.21,0,.03-.02.03-.02.03.03.03-.3-.59-1.14-1.11-1.56-1.11-3.98-2-6.35-2.67-2.42-.67-4.97-1.17-7.55-1.5-5.17-.68-10.47-.8-15.7-.47-5.21.36-10.42,1.21-15.13,2.94-4.69,1.68-8.89,4.48-10.49,8.3v.02c-.7,1.65-2.6,2.43-4.26,1.74-1.62-.68-2.4-2.53-1.77-4.16,1.25-3.23,3.51-5.88,5.99-7.85,2.5-2,5.25-3.41,8.03-4.52,5.57-2.21,11.31-3.27,17.04-3.83,5.74-.51,11.48-.43,17.23.22,2.87.32,5.75.83,8.64,1.58,2.9.81,5.79,1.68,8.8,3.66,1.44.98,3.18,2.39,4.18,4.99.12.33.23.64.32,1,.07.41.12.83.14,1.24,0,.71-.07,1.4-.2,1.94-.24,1.13-.6,2.01-.97,2.82-1.53,3.15-3.38,5.45-5.32,7.69-3.89,4.41-8.18,8.21-12.71,11.7-4.54,3.48-9.35,6.61-14.49,9.27-5.14,2.65-10.62,4.86-16.62,6-3.01.52-6.15.81-9.38.46-3.22-.31-6.52-1.28-9.47-2.97-2.93-1.72-5.47-4.09-7.31-6.76-1.88-2.66-3.21-5.54-4.19-8.43-.99-2.9-1.6-5.81-2.04-8.73-.3-1.45-.36-2.95-.48-4.43-.17-1.48-.13-2.99-.1-4.49.13-6,1.45-12.07,4-17.55,2.55-5.49,6.21-10.32,10.37-14.46,4.16-4.16,8.87-7.62,13.79-10.55,4.93-2.94,10.11-5.35,15.4-7.39,5.33-2.03,10.62-3.71,16.34-4.94,1.75-.38,3.48.74,3.86,2.49.37,1.72-.7,3.41-2.39,3.83l-.13.03Z"/>
  <path class="st0" d="M346.93,183.67c.36-.7.78-1.82,1.04-2.78.3-1,.42-2.02.51-3.02.09-1.99-.3-3.86-1.25-5.47-.93-1.61-2.47-2.97-4.27-4.07-1.7-.87-3.7-1.42-5.9-1.5-4.41-.18-9.13,1-13.65,2.52-4.52,1.58-9.02,3.64-13.17,5.97l-.07.04c-1.01.56-2.28.21-2.85-.8-.55-.98-.22-2.22.73-2.81,4.42-2.7,8.92-4.97,13.71-6.87,4.81-1.8,9.85-3.37,15.42-3.39,2.78,0,5.71.57,8.48,1.91,2.5,1.37,4.91,3.26,6.6,5.89,1.7,2.61,2.45,5.79,2.41,8.76-.06,1.48-.2,2.95-.55,4.35-.35,1.45-.72,2.69-1.43,4.24-.75,1.63-2.68,2.34-4.31,1.59-1.63-.75-2.34-2.68-1.59-4.31.02-.04.04-.08.05-.11l.07-.14Z"/>
  <path class="st0" d="M321.33,297.41c-.44-.37-.89-1.01-1.07-1.68-.1-.31-.13-.72-.13-.9v-.04s0-.18,0-.18v-.35s-.03-.68-.03-.68l-.02-1.34c0-.89.02-1.78.05-2.67.06-1.77.19-3.55.42-5.32.44-3.55,1.14-7.11,2.34-10.64,1.19-3.52,2.91-7.05,5.59-10.19,2.68-3.11,6.61-5.59,10.82-6.44,4.19-.93,8.35-.54,12.06.39,3.21.78,6.39,1.45,9.63,2.01,6.49,1.14,12.96,1.74,19.85,2.53,1.75.22,3.51.43,5.59.93,1.08.3,2.16.51,3.84,1.54.4.25.93.69,1.34,1.07.49.55.98,1.13,1.32,1.9.36.8.59,1.65.61,2.4.02.38.03.82,0,1.14-.04.3-.09.6-.15.9-.57,2.21-1.39,3.2-2.05,4.16-.69.92-1.36,1.67-2.02,2.38-.8.74-1.68,1.47-2.54,2.17-.89.8-1.68,1.12-2.53,1.68-3.36,2.08-6.65,3.4-9.96,4.75-3.31,1.28-6.61,2.41-9.92,3.44-6.62,2.07-13.3,3.7-20.02,5.03-3.37.64-6.74,1.21-10.13,1.66-1.69.24-3.4.42-5.1.61l-2.56.23-1.29.09-.65.04-.25.03c-.14.02-.29.03-.44.03-.3,0-.62-.01-.94-.07-.63-.11-1.21-.36-1.64-.63ZM325.42,292.37c-.22-.31-.6-.6-1.02-.74-.21-.07-.42-.12-.62-.13-.1,0-.2,0-.29,0h-.13s.03,0,.03,0l.6-.19,1.2-.38,2.42-.74,4.84-1.42,9.68-2.74c6.45-1.77,12.87-3.54,19.18-5.44,6.23-1.93,12.63-4.12,17.63-7.05,1.38-.72,2.1-1.48,3.04-2.18.49-.51.96-1.03,1.29-1.45.35-.38.47-.85.31-.28-.02.09-.03.19-.03.28,0,.1-.04.34-.02.5.05.33.11.78.32,1.18.19.37.36.65.61.86.08.13.31.26.35.29.25.11-.32-.15-.87-.28-1.2-.32-2.8-.57-4.4-.79-6.53-.83-13.53-1.68-20.33-3.13-3.41-.71-6.82-1.54-10.16-2.47-2.8-.81-5.58-1.07-8.02-.61-2.47.4-4.57,1.66-6.44,3.53-1.83,1.92-3.34,4.47-4.46,7.29-1.14,2.82-1.93,5.89-2.5,9.03-.28,1.57-.52,3.16-.69,4.76-.09.8-.16,1.6-.22,2.4l-.07,1.19-.03.59v.29s-.01.14-.01.14v.03c0-.15-.04-.53-.13-.82-.18-.62-.63-1.21-1.07-1.52Z"/>
  <path class="st0" d="M363.97,311.42c-13.61,0-23.65-5.1-24.27-5.43-1.59-.83-2.21-2.79-1.38-4.38.83-1.59,2.78-2.21,4.37-1.38h0c.2.1,20.62,10.39,41.44-.02,3.46-1.73,7.59-4.49,7.67-7.82.11-4.82-7.54-10.2-10.23-11.71-1.56-.88-2.12-2.85-1.25-4.42.87-1.57,2.85-2.13,4.41-1.26,1.41.78,13.77,7.94,13.56,17.51-.12,5.27-3.9,9.81-11.25,13.49-8.1,4.05-16.05,5.4-23.06,5.4Z"/>
  <path class="st0" d="M289.63,121.67s-.07,0-.11,0c-11.99-.39-20.27-4.6-24.61-12.51-12.46-22.7,14.05-67.99,15.19-69.91.62-1.05,1.75-1.67,2.99-1.59,1.21.07,2.28.82,2.78,1.93.48,1.08,11.78,26.75,16.13,45.31,4.66,19.88-9.4,35.12-10,35.76-.62.65-1.47,1.02-2.37,1.02ZM282.53,48.34c-6.54,12.58-20.27,42.49-11.92,57.69,3.03,5.52,8.79,8.49,17.58,9.07,2.78-3.51,10.7-15.01,7.49-28.73-2.96-12.63-9.49-29.22-13.14-38.03Z"/>
  <path class="st0" d="M311.76,68.21c-1.29,0-2.79-.19-4.54-.64-16.63-4.28-18.49-21.86-17.14-30.56.27-1.77,1.94-2.98,3.7-2.71,1.77.27,2.99,1.93,2.71,3.7-.12.82-2.72,19.41,12.35,23.29,3.16.81,4.05.27,4.06.26.27-.59-.41-3.52-2.83-6.56-2.11-2.67-4.02-3.49-4.48-3.38,0,0-.06.05-.14.15-1.12,1.4-3.17,1.63-4.56.51-1.4-1.12-1.63-3.16-.51-4.56,2.36-2.94,6.14-3.4,9.86-1.19,5.14,3.04,11.01,11.77,8.59,17.6-.71,1.7-2.51,4.12-7.07,4.12Z"/>
  <path class="st0" d="M327.05,50.49c1.07,8.16,1.34,16.22.99,24.4-.34,8.16-1.35,16.36-3.46,24.5-1.06,4.07-2.46,8.12-4.33,12.06-1.87,3.92-4.16,7.85-7.42,11.22-3.22,3.35-7.46,6.1-12.11,7.31-4.64,1.24-9.43,1.01-13.62-.3-1.55-.48-2.41-2.13-1.93-3.67.35-1.12,1.31-1.88,2.4-2.03l.2-.03c3.71-.5,7.04-1.23,9.92-2.62,2.89-1.37,5.36-3.3,7.57-5.75,4.55-4.83,7.45-11.8,9.68-18.9,2.12-7.22,3.52-14.81,4.49-22.52.95-7.68,1.56-15.57,1.85-23.31v-.1c.06-1.6,1.4-2.84,3-2.78,1.43.05,2.58,1.14,2.76,2.52Z"/>
  <path class="st0" d="M377.31,179.94c-.67-2.12-1.18-4.11-1.02-6.69.05-.65.2-1.36.5-2.14.3-.76.9-1.69,1.88-2.34.97-.65,2.13-.88,3.04-.86.9.02,1.66.19,2.32.41,1.33.43,2.36.99,3.34,1.57,1,.6,1.83,1.12,2.86,2.01,1.93,1.68,3.39,3.8,4.34,6.04.97,2.25,1.44,4.63,1.57,7.02.11,2.39-.12,4.83-.92,7.23-.83,2.38-2.13,4.85-4.53,6.79-1.2.96-2.68,1.69-4.24,2.05-1.56.31-3.17.34-4.56.04-2.86-.55-5.06-1.85-6.97-3.21-1.94-1.37-3.43-2.99-4.91-4.59-2.81-3.24-5.2-6.74-7.05-10.74-1.86-3.93-2.93-8.61-2.21-13.26.36-2.3,1.14-4.56,2.4-6.48,1.26-1.96,2.7-3.55,4.77-4.91.84-.55,1.96-.32,2.51.52.47.72.37,1.64-.2,2.24l-.18.19c-1.04,1.1-2.04,2.71-2.64,4.21-.63,1.55-.96,3.16-.95,4.79-.06,3.25,1.08,6.49,2.81,9.54,1.76,3.01,4.04,5.97,6.51,8.58,2.45,2.49,5.35,4.74,7.53,5.06,1.07.18,1.62-.04,2.35-.51.72-.52,1.45-1.62,1.93-2.94.94-2.7,1.03-6.12.08-8.97-.44-1.44-1.16-2.73-2.12-3.76-.93-1.01-2.61-2.4-3.63-2.89-.26-.14-.46-.21-.55-.27-.08-.04.08-.07.2-.21.27-.39-.16-.09-.34.58-.42,1.33-.46,3.34-.38,5.07v.16c.06,1.01-.72,1.86-1.73,1.91-.84.04-1.58-.5-1.83-1.27Z"/>
  <path class="st0" d="M327.9,243.25c3.16-6.35,7.62-11.53,12.93-16.05,5.29-4.48,11.64-7.88,18.42-9.86,6.8-1.96,13.96-2.33,20.88-1.68l5.17.67c1.7.37,3.39.66,5.08,1.17,3.37.94,6.76,2.16,9.99,4.04,3.21,1.87,6.32,4.49,8.49,8.01,1.05,1.78,1.82,3.75,2.24,5.78.4,2.04.43,4.09.22,6.07-.47,3.96-1.96,7.56-4.03,10.69-2.15,3.1-4.63,5.95-8.63,7.85-.95.47-2.4.81-3.19.9-.92.17-1.88.25-2.85.3-1.94.06-3.97-.11-5.97-.73-4.03-1.19-7.56-4.59-8.79-8.65-.65-2.01-.83-4.17-.42-6.3.39-2.11,1.42-4.27,3.21-5.83,1.76-1.62,4.18-2.3,6.28-2.26,2.13.02,4.01.59,5.72,1.3,1.26.52,1.86,1.97,1.33,3.23-.51,1.21-1.86,1.81-3.09,1.39l-.06-.02c-2.66-.93-5.22-.77-6.36.54-1.28,1.21-1.61,3.85-.73,5.93.84,2.12,2.59,3.64,4.84,4.17,1.12.29,2.37.37,3.66.28.65-.07,1.31-.13,1.98-.29.81-.16.96-.2,1.46-.45,1.88-.92,3.91-3.11,5.3-5.39,1.42-2.32,2.35-4.94,2.54-7.44.22-2.52-.38-4.82-1.61-6.83-1.29-1.99-3.27-3.7-5.67-5.04-2.4-1.35-5.19-2.32-8.07-3.06-1.42-.41-2.93-.66-4.41-.98l-4.48-.54c-5.97-.54-11.97-.13-17.68,1.45-11.39,3.14-21.65,10.76-29.44,20.1l-.17.2c-.87,1.05-2.43,1.19-3.48.32-.9-.75-1.13-2-.63-3Z"/>
  <path class="st0" d="M454.19,326.55c-3.24,0-6.87-.52-10.91-1.74-17.52-5.33-18.11-18.66-18.12-19.22-.05-1.79,1.36-3.29,3.15-3.34,1.79-.03,3.29,1.36,3.34,3.15.02.34.63,9.28,13.52,13.2,15.13,4.61,22.56-2.91,25.17-6.61-13.43-13.03-30.83-7.12-31.01-7.06-1.68.59-3.54-.29-4.14-1.98-.6-1.69.29-3.54,1.98-4.14.93-.33,23.18-7.89,39.65,10.56.86.97,1.07,2.35.52,3.53-.08.16-6.56,13.65-23.15,13.65Z"/>
  <path class="st0" d="M243.44,130.91c.02.16-.44-.24-.81-.47l-1.37-.93c-.97-.64-1.98-1.35-2.97-2.09-2.02-1.45-3.96-3.12-5.83-4.9-3.69-3.62-6.94-7.96-9.16-12.91-2.22-4.93-3.44-10.36-3.55-15.72-.1-2.68.05-5.35.41-7.95l.49-3.52c.17-1.07.25-2.17.37-3.26.68-8.77-.29-17.89-2.15-26.86-1.88-8.95-4.59-18-7.96-26.47h0s-.06-.12-.06-.12c-.78-1.59-.13-3.51,1.46-4.29.85-.42,1.8-.42,2.62-.1,4.45,1.8,8.14,3.97,11.85,6.48,3.65,2.51,7.13,5.27,10.3,8.36,3.16,3.09,6.17,6.36,8.77,9.94,2.7,3.51,4.95,7.33,7.08,11.2.86,1.57.29,3.54-1.28,4.41-1.57.86-3.54.29-4.41-1.28l-.07-.13c-1.97-3.57-4.03-7.09-6.52-10.31-2.39-3.3-5.16-6.3-8.06-9.14-2.91-2.85-6.11-5.38-9.46-7.68-3.3-2.26-7-4.36-10.44-5.75l4.02-4.5h0c2.47,4.39,4.41,8.77,6.26,13.32,1.85,4.52,3.41,9.18,4.71,13.92,2.58,9.49,4.12,19.46,3.58,29.69-.09,1.28-.17,2.56-.32,3.84l-.45,3.55c-.27,2.11-.36,4.21-.27,6.27.15,4.15,1.09,8.15,2.63,11.95,1.55,3.8,3.77,7.39,6.48,10.79,1.33,1.73,2.82,3.36,4.37,5.06l2.41,2.59c.41.46.85.92,1.29,1.44.47.6.9,1.02,1.56,2.18.94,1.53.45,3.53-1.08,4.46-1.53.94-3.53.45-4.46-1.08Z"/>
  <path class="st0" d="M249.75,166.02c-.53,0-1.06-.13-1.56-.4-1.57-.86-2.15-2.83-1.29-4.4,20.29-37.08-4.32-86.11-4.57-86.6-.82-1.6-.19-3.55,1.41-4.37,1.6-.82,3.55-.18,4.37,1.41,1.09,2.13,26.44,52.55,4.49,92.68-.59,1.08-1.7,1.69-2.85,1.69Z"/>
  <path class="st0" d="M197.99,307.33c-1.75,0-3.19-1.39-3.24-3.15-3.06-103.94-56.47-147.2-57.01-147.63-1.41-1.11-1.65-3.15-.55-4.56,1.11-1.41,3.15-1.66,4.55-.55,2.3,1.8,56.34,45.36,59.49,152.54.05,1.79-1.36,3.29-3.15,3.34-.03,0-.07,0-.1,0Z"/>
  <path class="st0" d="M466.5,255.56c-6.8,0-13.88-2.32-21.12-6.95-1.51-.96-1.95-2.97-.99-4.48.97-1.51,2.97-1.95,4.48-.99,8.15,5.2,15.86,6.99,22.92,5.31,7.84-1.87,13.12-7.62,15.42-10.63-5.59-6.06-11.6-9.28-17.89-9.58-10.75-.52-19.12,7.65-19.2,7.73-1.27,1.26-3.32,1.26-4.59-.01-1.26-1.27-1.26-3.32,0-4.58.42-.42,10.49-10.24,24.03-9.63,8.83.4,16.99,5.03,24.26,13.76.88,1.05,1,2.53.31,3.72-.29.5-7.3,12.28-20.75,15.52-2.26.55-4.56.82-6.89.82Z"/>
  <path class="st0" d="M404.47,186.27c.39-1.82.91-3.23,1.67-4.68.7-1.45,1.67-2.75,2.69-4.02,1.12-1.18,2.23-2.41,3.63-3.33.68-.48,1.34-1,2.07-1.42.75-.38,1.5-.77,2.27-1.12,6.24-2.71,13.4-2.88,19.42-1.19,3.15.63,5.84,2.01,8.62,3.22,1.32.69,2.54,1.51,3.8,2.26,1.23.79,2.56,1.48,3.63,2.43,2.21,1.82,4.51,3.55,6.49,5.54,1.95,2.02,3.86,4.08,5.67,6.18l.54.62c.47.55.63,1.27.51,1.93h0c-.33,4.52-1.18,8.59-2.41,12.78-1.27,4.13-2.95,8.2-5.39,11.95-2.46,3.73-5.7,7.09-9.62,9.55-3.95,2.53-8.56,3.56-13.04,4.08-1.78.21-3.39-1.07-3.59-2.84-.2-1.76,1.05-3.36,2.8-3.59l.36-.05c3.57-.46,7.11-1.2,10.09-3.14,2.98-1.89,5.53-4.48,7.57-7.56,2.02-3.1,3.49-6.63,4.62-10.29,1.09-3.63,1.88-7.59,2.14-11.21h0s1.04,2.55,1.04,2.55c-2.27-1.36-4.46-2.76-6.59-4.2-1.03-.78-2.21-1.28-3.31-1.91l-3.27-1.88c-1.06-.68-2.25-1.01-3.33-1.57-1.11-.49-2.19-1.06-3.3-1.49-2.25-.58-4.41-1.64-6.59-1.83-1.08-.19-2.17-.48-3.2-.39l-1.56-.08-.78-.05c-.25.02-.5.07-.75.1-2.02.16-3.93.64-5.75,1.4-.45.2-.92.37-1.39.53l-1.36.68c-.96.38-1.82.98-2.8,1.46-.9.59-1.91,1.12-2.87,1.77-1,.57-2,1.38-2.98,1.86l-1.13.55c-1.61.78-3.56.11-4.34-1.5-.33-.68-.4-1.41-.26-2.09Z"/>
  <path class="st0" d="M411.36,222.7c-1.6,0-3-1.18-3.21-2.81-.06-.46-1.4-11.27,5.63-18.82,4.71-5.06,11.86-7.33,21.2-6.76,1.79.11,3.15,1.65,3.04,3.44-.11,1.79-1.64,3.17-3.44,3.04-7.3-.44-12.7,1.12-16.02,4.67-4.95,5.27-3.99,13.5-3.98,13.58.22,1.78-1.03,3.4-2.8,3.63-.14.02-.28.03-.42.03Z"/>
  <path class="st0" d="M270.45,349.78c5.64-3.57,12.51-4.6,19.32-3.16,6.83,1.4,12.92,5.76,17,11.03,2.25,2.56,3.65,5.51,5.19,8.37.74,1.44,1.14,2.98,1.72,4.45.48,1.51,1.12,2.97,1.42,4.5.32,1.52.62,3.05.88,4.57l.4,2.28c.16.75.26,1.51.26,2.28.15,3.06.27,6.11.14,9.14-.05,1.05-.94,1.87-1.99,1.82-.74-.03-1.36-.48-1.65-1.1l-.07-.16c-1.26-2.72-2.26-5.42-3.23-8.11-1-2.67-2.29-5.17-3.28-7.76-.51-1.29-1.25-2.43-1.85-3.64-.63-1.18-1.16-2.45-1.86-3.56-1.48-2.15-2.72-4.48-4.43-6.28-3.19-3.85-6.91-6.81-11.37-8.65l-1.69-.7-1.79-.51c-1.19-.43-2.46-.54-3.74-.84-2.55-.4-5.36-.5-8.03-.49h-.34c-1.05,0-1.9-.84-1.9-1.89,0-.67.36-1.27.88-1.61Z"/>
  <path class="st0" d="M260.07,195.98c3.88,4.78,5.83,10.68,6.37,16.87.52,6.19-.85,12.81-4.11,18.46-3.2,5.69-8.18,10.21-13.64,12.99-5.48,2.82-11.37,4.27-17.25,4.24-.53,0-.96-.44-.96-.97,0-.33.18-.63.43-.8,4.77-3.21,9.23-6.21,13.01-9.58,3.79-3.34,6.87-6.99,9.01-11.09,2.16-4.09,3.49-8.59,4.28-13.52.79-4.93,1.03-10.23,1.15-15.92v-.1c.01-.53.45-.95.99-.94.29,0,.56.15.73.36Z"/>
  <path class="st0" d="M399.84,442.5c-.84,0-1.67-.32-2.31-.96-1.26-1.27-1.25-3.33.03-4.59,5.22-5.17,7.64-10.24,7.2-15.1-.65-7.14-7.39-11.92-7.46-11.97-1.48-1.01-1.86-3.03-.85-4.51,1.01-1.48,3.03-1.87,4.51-.85.38.26,9.33,6.47,10.27,16.75.63,6.88-2.44,13.71-9.1,20.3-.63.63-1.46.94-2.28.94Z"/>
  <path class="st0" d="M380.46,325.45c-6.3,1.25-12.47,1.89-18.83,1.92-6.33.03-12.76-.4-19.16-2.11-3.2-.85-6.38-2.01-9.45-3.66-3.06-1.66-5.96-3.92-8.28-6.79-2.31-2.88-3.89-6.35-4.62-9.87-.7-3.54-.5-7.03.03-10.33.29-1.77,1.95-2.98,3.73-2.69,1.52.25,2.63,1.51,2.73,2.99l.02.26c.18,2.78.46,5.44,1.24,7.84.79,2.38,1.95,4.5,3.53,6.31,1.55,1.84,3.56,3.37,5.82,4.67,2.29,1.27,4.87,2.22,7.54,2.99,5.36,1.54,11.18,2.22,17.02,2.51,5.83.22,11.87.08,17.63-.44h.14c1.79-.18,3.37,1.14,3.53,2.93.15,1.67-1,3.16-2.6,3.48Z"/>
  <path class="st0" d="M317.81,47.52c-1.44,0-2.75-.96-3.14-2.42-1.17-4.41-3.1-7.26-5.74-8.48-3.9-1.79-8.44.31-8.48.33-1.61.79-3.56.11-4.34-1.5-.78-1.61-.11-3.56,1.5-4.34.3-.15,7.31-3.47,14.02-.38,4.49,2.06,7.63,6.34,9.31,12.71.46,1.73-.57,3.51-2.31,3.97-.28.07-.56.11-.83.11Z"/>
  <path class="st0" d="M223.06,159.68c-.65,0-1.31-.2-1.88-.6-.3-.22-7.42-5.4-7.99-13.75-.38-5.59,2.2-11.04,7.67-16.2,1.3-1.23,3.35-1.18,4.59.13,1.23,1.3,1.17,3.36-.13,4.59-3.98,3.75-5.88,7.45-5.65,11,.33,5.27,5.25,8.92,5.3,8.96,1.44,1.05,1.77,3.08.72,4.53-.63.88-1.63,1.35-2.63,1.35Z"/>
  <path class="st0" d="M407.34,148.18c1.01-2.42,2.16-4.27,3.48-6.24,1.32-1.91,2.83-3.68,4.44-5.36,3.25-3.32,7.04-6.16,11.2-8.31,4.12-2.2,8.61-3.72,13.17-4.53,4.56-.83,9.19-1,13.69-.52l.49.05c1.69.18,2.91,1.69,2.73,3.38-.04.4-.16.78-.34,1.11h0c-2.35,5.19-4.98,10.02-8.05,14.77-1.53,2.36-3.19,4.67-5.04,6.87-.45.56-.94,1.1-1.43,1.64-.47.53-.98,1.08-1.58,1.63-1.14,1.08-2.36,2.04-3.62,2.87-5.06,3.33-10.55,5.19-16.02,6.59-5.52,1.36-10.96,2.21-16.7,2.6-1.79.12-3.34-1.23-3.46-3.02-.12-1.79,1.23-3.34,3.02-3.46h.12c5.09-.35,10.43-1.17,15.45-2.42,5.02-1.27,9.96-3.02,13.99-5.69,2.05-1.31,3.56-2.88,5.26-4.91,1.64-1.95,3.16-4.06,4.58-6.25,2.83-4.37,5.41-9.11,7.54-13.81h0s2.88,4.54,2.88,4.54c-4.05.24-8.01.8-11.82,1.75-3.8,1.02-7.45,2.41-10.86,4.28-3.41,1.86-6.58,4.14-9.49,6.76-1.46,1.3-2.86,2.69-4.18,4.15-1.31,1.41-2.63,3.07-3.64,4.43l-.21.28c-1.07,1.44-3.1,1.74-4.54.67-1.22-.91-1.62-2.51-1.06-3.86Z"/>
  <path class="st0" d="M388.88,446.11c-.32,0-.64-.05-.97-.15-.62-.19-15.19-4.83-20.34-14.87-9.27-18.05-5.94-48.59-5.79-49.88.2-1.78,1.81-3.08,3.59-2.86,1.78.2,3.06,1.81,2.86,3.59-.03.3-3.25,29.88,5.11,46.18,2.76,5.37,9.78,8.93,13.72,10.58,3.17-8.42,3.44-15.45.78-20.93-3.64-7.5-11.58-9.65-11.66-9.67-1.74-.45-2.78-2.22-2.32-3.96.45-1.74,2.22-2.78,3.96-2.32.44.11,10.94,2.95,15.87,13.11,3.82,7.87,3.2,17.7-1.84,29.21-.53,1.21-1.71,1.94-2.97,1.94Z"/>
  <path class="st0" d="M220.21,397.91c-1.4,0-2.69-.92-3.11-2.32-5.47-18.47-27.06-28.79-37.71-31.67-2.63-.71-4.48-2.42-5.22-4.82-2.57-8.39,10.39-24.27,14.42-28.94.54-.63,1.31-1.03,2.14-1.11,7.18-.7,14.37,2.26,21.36,8.83,13.61,12.81,22.62,36.09,22.32,43.83-.47,12.27-12.78,15.93-13.3,16.08-.3.08-.6.12-.9.12ZM192.62,335.43c-6.85,8.17-13.23,18.54-12.24,21.76.04.12.09.29.7.45,12.03,3.25,33.41,13.66,41.04,32.64,2.45-1.41,5.62-4.13,5.8-8.83.21-5.5-7.64-26.96-20.28-38.85-5.11-4.81-10.22-7.21-15.01-7.17Z"/>
  <path class="st0" d="M207.25,417.58c-.49,0-.98-.11-1.44-.33-1-.49-1.68-1.47-1.79-2.58-1.6-15.56-22.82-22.19-34.22-25.76-7.02-2.2-9.93-3.1-10.26-6.19-.08-.76-.03-2.65,2.25-3.96,4.69-2.68,8.58-9.91,9.69-12.46.71-1.64,2.62-2.4,4.27-1.7,1.64.71,2.41,2.62,1.7,4.26-.16.38-3.42,7.85-8.83,12.85,1.02.33,2.12.68,3.13.99,11.53,3.6,31.98,10,37.48,25.65,1.4-1.57,2.74-3.65,3.12-6.05.46-2.96-.67-6.07-3.36-9.25-10.67-12.62-16.94-15.43-17-15.45-1.63-.71-2.41-2.6-1.72-4.24.68-1.64,2.54-2.43,4.19-1.76.76.31,7.77,3.4,19.49,17.27,3.97,4.7,5.59,9.58,4.8,14.5-1.34,8.44-9.45,13.53-9.79,13.74-.52.32-1.11.48-1.71.48Z"/>
  <path class="st0" d="M133.23,472.81c-8.8,0-22.51-5.77-26.08-10.14-2.06-2.51-3.83-4.68,25.55-41.35,13.74-17.15,28.09-33.99,28.24-34.16,1.16-1.37,3.21-1.53,4.58-.37,1.37,1.16,1.53,3.21.37,4.58-24.23,28.43-49.78,60.63-52.85,68.02,4.3,3.48,18.01,8.14,22.13,6.74,4.23-2.89,26.14-35.78,45.03-66.13.95-1.52,2.95-1.98,4.47-1.04,1.52.95,1.99,2.95,1.04,4.47-15.34,24.65-41.98,66.36-48.08,68.71-1.22.47-2.72.68-4.4.68Z"/>
  <path class="st0" d="M146.23,476.98c-.65,0-1.3-.19-1.87-.59-1.46-1.04-1.81-3.06-.78-4.53l47-66.53c1.04-1.47,3.06-1.81,4.53-.78,1.46,1.04,1.81,3.06.78,4.53l-47,66.53c-.63.9-1.64,1.37-2.65,1.37Z"/>
  <path class="st0" d="M155.56,478.91c-.64,0-1.28-.19-1.85-.58-1.48-1.02-1.84-3.04-.82-4.52l42.43-61.33c1.02-1.48,3.04-1.84,4.52-.82,1.48,1.02,1.84,3.04.82,4.52l-42.43,61.33c-.63.91-1.64,1.4-2.67,1.4Z"/>
  <path class="st0" d="M93.82,366.77c-2.71,0-5.32-.41-7.76-1.35-8.33-3.2-13.03-11.69-13.97-25.22-.12-1.79,1.23-3.34,3.02-3.46,1.8-.15,3.34,1.23,3.46,3.01.75,10.8,4.05,17.39,9.82,19.61,13.22,5.06,36.61-11.52,45.25-19.88,8.66-8.38,17.09-11.66,25.06-9.76,14.21,3.39,20.87,22.19,21.15,22.99.59,1.69-.31,3.54-2,4.13-1.7.59-3.54-.31-4.13-2-.05-.16-5.79-16.26-16.54-18.8-5.66-1.34-12.07,1.38-19.02,8.11-6.82,6.6-27.49,22.62-44.33,22.62Z"/>
  <path class="st0" d="M197.99,335.43c-1.67,0-3.08-1.28-3.23-2.97-.03-.31-2.99-31.48-25.15-32.33-7.41-.26-18.98,5.82-30.17,11.72-16.06,8.47-31.23,16.48-40.34,9.89-6.38-4.61-7.96-15.07-4.97-32.92.94-5.62-1.51-7.32-2.32-7.87-5.01-3.46-16.78-1.6-26.78,4.23-9.8,5.72-15.27,13.51-14.61,20.86.16,1.79-1.16,3.36-2.94,3.52-1.79.15-3.36-1.16-3.52-2.94-.89-9.92,5.77-20.03,17.81-27.05,10.31-6.01,25.27-9.82,33.74-3.97,3.04,2.09,6.37,6.28,5.03,14.28-3.07,18.34-.4,24.58,2.37,26.59,5.85,4.23,20.54-3.53,33.51-10.37,12.5-6.59,24.31-12.78,33.45-12.47,22.32.85,30.28,25.4,31.37,38.27.15,1.78-1.17,3.35-2.96,3.51-.09,0-.19.01-.28.01Z"/>
</svg>