<?xml version="1.0" encoding="UTF-8"?>
<svg id="Layer_1" xmlns="http://www.w3.org/2000/svg" version="1.1" viewBox="0 0 500 500">
  <!-- Generator: Adobe Illustrator 30.4.0, SVG Export Plug-In . SVG Version: 2.1.4 Build 226)  -->
  <defs>
    <style>
      .st0 {
        fill: #1b1919;
      }

      .st1 {
        fill: #606161;
      }
    </style>
  </defs>
  <path class="st0" d="M375.29,137.11c-.67,0-1.16-.02-1.4-.03-.87-.04-1.65-.54-2.04-1.31-2-3.93-8.15-17.11-3.28-21.94,2.12-2.1,4.85-2.95,7.52-2.36,2.98.67,5.54,3.07,7.35,6.84,2.46-.63,6.22-1.09,8.64,1.01,1.3,1.13,4.16,4.31,2.53,9.47-2.4,7.62-14.9,8.31-19.34,8.31ZM374.42,116.09c-1.05,0-1.9.6-2.46,1.16-1.35,1.34.32,8.3,3.54,15.05,5-.04,13.36-1.18,14.55-4.95.57-1.79.2-3.27-1.09-4.39-.9-.77-4.08-.2-5.97.55-.6.24-1.28.23-1.87-.04-.59-.27-1.05-.76-1.27-1.37-1.22-3.36-2.97-5.52-4.79-5.93-.21-.05-.42-.07-.62-.07Z"/>
  <path class="st0" d="M88.87,333.11c-1.33,0-2.4-1.08-2.4-2.4v-1.15c0-1.33,1.08-2.4,2.4-2.4s2.4,1.08,2.4,2.4v1.15c0,1.33-1.08,2.4-2.4,2.4Z"/>
  <path class="st0" d="M131.84,312.09c-.79,0-1.57-.39-2.03-1.11-.71-1.12-.38-2.6.74-3.32l.97-.62c1.12-.71,2.6-.38,3.32.74.71,1.12.38,2.6-.74,3.32l-.97.62c-.4.25-.85.38-1.29.38Z"/>
  <path class="st0" d="M304.03,213.39c-1.32,0-2.39-1.07-2.4-2.39v-1.46c-.02-1.33,1.05-2.41,2.38-2.42h.02c1.32,0,2.39,1.07,2.4,2.39v1.46c.02,1.33-1.05,2.41-2.38,2.42h-.01Z"/>
  <path class="st0" d="M401.88,171.32c-.58,0-1.18-.13-1.73-.42l-1.3-.66c-1.89-.96-2.65-3.27-1.69-5.17.96-1.89,3.27-2.65,5.17-1.69l1.3.66c1.89.96,2.65,3.27,1.69,5.17-.68,1.34-2.03,2.11-3.43,2.11Z"/>
  <path class="st0" d="M116.17,335.38c-.13,0-.27,0-.4-.02-2.11-.22-3.65-2.11-3.42-4.22l.15-1.45c.22-2.11,2.12-3.63,4.22-3.42,2.11.22,3.65,2.11,3.42,4.22l-.15,1.45c-.21,1.98-1.88,3.44-3.82,3.44Z"/>
  <path class="st0" d="M287.77,220.99c-.14,0-.27,0-.41-.02-2.11-.22-3.65-2.11-3.42-4.22l.15-1.45c.22-2.11,2.12-3.64,4.22-3.42,2.11.22,3.65,2.11,3.42,4.22l-.15,1.45c-.21,1.98-1.88,3.44-3.82,3.44Z"/>
  <path class="st0" d="M202.73,334.65c-.59,0-1.2-.14-1.76-.43l-1.3-.67c-1.89-.98-2.63-3.29-1.65-5.18.97-1.88,3.29-2.63,5.18-1.65l1.3.67c1.89.98,2.63,3.29,1.65,5.18-.68,1.32-2.03,2.08-3.42,2.08Z"/>
  <path class="st0" d="M354.58,95.94c-2.39,0-4.38-1.84-4.75-2.21-.94-.93-.96-2.45-.02-3.4.93-.94,2.45-.96,3.39-.03.42.4,1.12.82,1.39.83,1.31.04,2.39,1.13,2.37,2.43-.02,1.31-1.03,2.36-2.34,2.37h-.03Z"/>
  <path class="st0" d="M308.93,199.7c-1.01,0-2.04-.19-3.04-.58-1.67-.66-2.98-2.02-3.69-3.85-.79-2.04-.75-4.49.1-6.23,1.42-2.89,3.38-3.93,4.78-4.3,2.9-.75,5.36.75,6.06,1.23h0c3.99,2.77,4.27,6.82,2.79,9.6-1.39,2.61-4.11,4.12-6.99,4.12ZM308.71,189.35c-.14,0-.28.01-.42.05-.61.16-1.18.75-1.67,1.76-.19.39-.3,1.42.07,2.37.22.57.55.95.97,1.11,1.8.71,3.39-.13,4.03-1.33.63-1.18.17-2.38-1.29-3.39-.35-.24-1.03-.58-1.69-.58Z"/>
  <path class="st1" d="M153.62,232.64c-1.2-.85-4.31-2.07-6.24,1.79-.81,1.61-.38,4.87,1.93,5.79,4.82,1.93,9.29-4.06,4.31-7.57Z"/>
  <path class="st0" d="M291.96,201.54c-.34,0-.69-.07-1.02-.23-1.2-.57-1.72-2-1.15-3.2l.34-.73c.56-1.2,1.99-1.72,3.2-1.15,1.2.57,1.72,2,1.15,3.2l-.34.73c-.41.87-1.27,1.38-2.18,1.38Z"/>
  <path class="st0" d="M281.1,328.16c-.34,0-.69-.07-1.02-.23-1.2-.57-1.72-2-1.15-3.2l.34-.73c.56-1.2,1.99-1.72,3.2-1.15,1.2.57,1.72,2,1.15,3.2l-.34.73c-.41.87-1.27,1.38-2.18,1.38Z"/>
  <path class="st0" d="M287.5,175.55c-.34,0-.69-.07-1.02-.23-1.2-.57-1.72-2-1.15-3.2l.34-.73c.56-1.2,1.99-1.72,3.2-1.15,1.2.56,1.72,2,1.15,3.2l-.34.73c-.41.87-1.27,1.38-2.18,1.38Z"/>
  <path class="st0" d="M403.7,111.31c-.34,0-.69-.07-1.02-.23-1.2-.57-1.71-2-1.15-3.2l.34-.73c.57-1.2,1.99-1.72,3.2-1.15,1.2.57,1.71,2,1.15,3.2l-.34.73c-.41.87-1.27,1.38-2.17,1.38Z"/>
  <path class="st0" d="M295.85,313.02c-.83,0-1.67-.15-2.48-.47-1.4-.55-2.5-1.69-3.09-3.21-.66-1.7-.63-3.66.09-5.13,1.16-2.36,2.79-3.22,3.95-3.52,2.4-.62,4.44.61,5.01,1.01,0,0,0,0,0,0,3.27,2.27,3.5,5.62,2.26,7.93-1.15,2.14-3.38,3.39-5.74,3.39ZM295.68,305.33c-.05,0-.11,0-.15.02-.26.07-.57.43-.84.99-.07.15-.14.73.08,1.29.06.14.18.39.36.46,1.12.44,1.95-.18,2.23-.7.31-.58.05-1.16-.76-1.72-.25-.17-.63-.32-.91-.32Z"/>
  <path class="st0" d="M96.02,394.66c-1.07,0-2.14-.44-2.9-1.31l-.54-.61c-1.4-1.6-1.24-4.03.36-5.43,1.6-1.39,4.02-1.24,5.42.36l.54.61c1.4,1.6,1.24,4.03-.36,5.42-.73.64-1.63.95-2.53.95Z"/>
  <path class="st0" d="M106.21,358.25c-.17-2.69.03-5.17.78-7.89.41-1.34.94-2.75,1.95-4.13.5-.69,1.12-1.37,1.92-1.97.76-.59,1.83-1.1,2.7-1.34,1.43-.41,3.06-.67,4.85-.51,1.8.17,3.74.93,5.17,2.16,1.44,1.21,2.41,2.66,3.08,4.05.7,1.4,1.1,2.78,1.41,4.13.59,2.69.79,5.26.78,7.79,0,2.52-.18,4.98-.49,7.41-.62,4.87-1.62,9.55-3.17,14.21-.42,1.26-1.79,1.95-3.05,1.53-1.08-.36-1.74-1.41-1.64-2.51v-.08c.42-4.55.82-9.19.98-13.71.12-4.49.11-9.07-.79-12.92-.45-1.89-1.2-3.53-1.95-4.13-.37-.3-.68-.48-1.22-.6-.55-.09-1.3-.06-2.14.12-.37.04-.6.08-1.1.59-.45.47-.96,1.21-1.35,2.08-.83,1.71-1.44,3.92-1.91,5.92l-.05.21c-.31,1.3-1.61,2.1-2.9,1.79-1.06-.25-1.78-1.16-1.85-2.19Z"/>
  <path class="st0" d="M122.69,384.02c-5.24-.14-10.35-.72-15.5-1.68-2.57-.46-5.13-1.1-7.7-1.87-2.56-.82-5.13-1.71-7.69-3.35-2.66-1.66-4.84-4.58-5.42-7.87-.6-3.28.22-6.6,1.96-9.25,1.73-2.64,4.59-4.78,7.97-5.23,3.4-.48,6.65.89,8.95,2.71,1.04.82,1.21,2.34.39,3.38-.8,1.01-2.25,1.2-3.29.46h-.01c-1.71-1.25-3.59-1.84-5.29-1.53-1.69.3-3.28,1.47-4.3,3.08-1.01,1.62-1.42,3.61-1.06,5.35.38,1.73,1.44,3.27,3.1,4.29,1.74,1.12,4.02,1.96,6.3,2.66,2.31.7,4.72,1.22,7.14,1.72,4.85.96,9.86,1.68,14.76,2.33h.06c1.32.18,2.24,1.39,2.06,2.71-.16,1.23-1.24,2.11-2.45,2.08Z"/>
  <path class="st0" d="M143.86,194.82c-.32,0-.64-.06-.95-.2l-1.34-.58c-1.22-.52-1.78-1.94-1.26-3.16.52-1.22,1.93-1.79,3.16-1.26l1.34.58c1.22.52,1.78,1.94,1.26,3.16-.39.91-1.28,1.45-2.21,1.45Z"/>
  <path class="st0" d="M145.42,221.68c-1.21,0-2.34-.77-2.74-1.98l-.46-1.39c-.5-1.51.32-3.14,1.83-3.64,1.51-.49,3.14.32,3.64,1.83l.46,1.39c.5,1.51-.32,3.14-1.83,3.64-.3.1-.61.14-.9.14Z"/>
  <path class="st0" d="M136.53,246.24c-.09,0-.18,0-.27,0-1.82-.08-3.6-.9-4.66-2.14-1.7-2.01-1.83-3.85-1.64-5.03.39-2.45,2.34-3.82,2.93-4.18,3.39-2.08,6.55-.95,8.17,1.11,2.03,2.58,1.76,6.32-.63,8.7-1.01,1.01-2.39,1.55-3.91,1.55ZM136.52,238.58c-.32,0-.69.13-1.11.39t0,0c-.31.19-.66.56-.7.85-.04.27.16.69.56,1.17.11.12.61.42,1.21.44.17,0,.43,0,.57-.15.85-.85.62-1.86.25-2.32-.2-.26-.46-.38-.77-.38ZM134.15,236.92h.02-.02Z"/>
  <path class="st0" d="M130.54,53.44l-15.75,138.06c-1.28,11.54-2.46,23.08-3.55,34.62-.48,5.75-1.01,11.53-1.29,17.2-.03.69-.12,1.47-.1,2.09l.02,1.9c.02.64-.03,1.26.03,1.91l.32,2c.48,2.64,1.12,5.26,2.1,7.74,1.85,5.01,4.78,9.57,8.38,13.66,3.62,4.09,7.91,7.68,12.44,11.14,4.54,3.47,9.37,6.75,14.01,10.75,2.31,2.02,4.58,4.24,6.53,6.93.94,1.38,1.85,2.81,2.53,4.42.17.4.35.8.5,1.19l.34,1.15.66,2.31c1.47,6.02,2.29,11.79,3.05,17.63.76,5.82,1.35,11.63,1.92,17.44,1.12,11.62,1.95,23.24,2.69,34.87.73,11.63,1.34,23.26,1.73,34.92.18,5.85.37,11.64.28,17.62-.02.76,0,1.46-.05,2.28l-.23,2.6c.01.15-.11.58-.23.93-.12.35-.25.75-.4,1.04-.28.49-.6,1.04-.91,1.44l-.93,1.12-.93.92c-2.49,2.29-5,3.92-7.54,5.56-10.16,6.31-20.68,11.32-30.96,16.65-2.54,1.32-5.13,2.67-7.41,4.05-.51.32-1.15.75-1.27.88l-.05.03c-.1.09.23-.22.28-.37.18-.63.02.59.36-1.59-.17-2.03-1.32-2.45-1.38-2.57-.49-.29-.43-.2-.42-.22l.26.06c1.04.2,2.52.32,3.88.41,5.62.33,11.44.35,17.2.36,11.56-.03,23.15-.31,34.73-.75,11.57-.46,23.16-1.03,34.61-2.09,2.85-.28,5.71-.58,8.45-1.01,1.34-.21,2.77-.47,3.75-.79.23-.07.41-.16.3-.11.04,0-.47.23-.74,1.09-.24.9.07,1.43.09,1.47.08.11-.04-.05-.15-.16-.58-.6-1.74-1.4-2.86-2.09-1.14-.71-2.37-1.39-3.61-2.05-2.49-1.33-5.07-2.6-7.67-3.85-5.2-2.52-10.49-4.98-15.74-7.67-2.63-1.35-5.25-2.75-7.85-4.36-1.3-.82-2.6-1.67-3.89-2.7-.65-.52-1.3-1.09-1.95-1.78-.61-.66-1.4-1.59-1.82-2.76-.18-.51-.43-1.19-.48-1.57l-.24-1.26c-.16-.85-.2-1.57-.31-2.36-.14-1.53-.27-3.03-.33-4.51-.16-2.97-.21-5.91-.26-8.84-.07-5.86,0-11.7.1-17.53.23-11.66.68-23.3,1.26-34.94.59-11.63,1.3-23.26,2.27-34.89.5-5.82,1.03-11.63,1.82-17.5.21-1.47.43-2.95.72-4.47.13-.75.35-1.57.54-2.38.16-.5.34-.99.52-1.48.23-.47.51-.95.79-1.4,2.19-3,4.45-4.78,6.71-6.78,9.07-7.57,18.25-14.44,26.24-22.53,3.98-4.01,7.69-8.28,10.6-12.93,2.92-4.63,5.04-9.64,5.27-14.83,0-1.36.07-2.65.02-4.06l-.2-4.28c-.09-2.84-.39-5.75-.58-8.62-.43-5.76-.96-11.54-1.51-17.31-1.1-11.55-2.29-23.1-3.54-34.64-2.49-23.09-5.17-46.17-7.92-69.24l-4.18-34.6-2.14-17.26c-.09-.66-.2-1.22-.32-1.53-.13-.31-.21-.44-.49-.67-.55-.47-1.75-.97-3.01-1.32-2.6-.74-5.43-1.33-8.23-1.85-11.26-2-22.8-3.14-34.25-3.42-5.72-.11-11.46,0-17.04.69-2.78.35-5.54.84-8.07,1.66-1.29.38-2.45.92-3.5,1.5-.47.32-1.01.62-1.34.99-.15.16-.45.39-.48.48-.05.09-.13.13-.26.18ZM125.97,51.94c.29-.54.63-1.09.99-1.6.38-.52.68-.72,1.03-1.09.67-.68,1.42-1.12,2.14-1.61,1.47-.84,2.98-1.51,4.47-1.96,3-.98,5.99-1.51,8.96-1.9,5.95-.77,11.87-.89,17.76-.82,11.78.23,23.45,1.32,35.08,3.32,2.92.53,5.79,1.09,8.78,1.93,1.51.47,3.12.93,4.86,2.28.86.68,1.66,1.76,2.04,2.81.4,1.05.52,1.94.64,2.71l2.23,17.32,4.36,34.6c2.87,23.07,5.66,46.15,8.28,69.26,1.3,11.56,2.58,23.12,3.71,34.71.56,5.8,1.1,11.59,1.55,17.42.19,2.93.49,5.8.6,8.77l.21,4.42c.06,1.48-.01,3.1-.02,4.65-.13,3.17-.9,6.4-1.98,9.35-1.09,2.98-2.57,5.72-4.18,8.33-3.26,5.21-7.24,9.78-11.42,14.01-8.35,8.48-17.83,15.59-26.58,22.93-2.1,1.81-4.35,3.8-5.57,5.52l-.28.5c-.05.2-.12.39-.19.58-.13.61-.3,1.2-.41,1.88-.25,1.34-.46,2.73-.66,4.13-.75,5.65-1.27,11.41-1.76,17.17-.94,11.53-1.63,23.11-2.2,34.68-.55,11.58-.98,23.17-1.19,34.74-.1,5.79-.15,11.57-.07,17.33.05,2.87.1,5.75.27,8.58.06,1.42.18,2.82.31,4.18.09.65.14,1.38.25,1.96l.16.88c.05.33.12.32.14.51.03.33.9,1.23,1.85,1.98.98.78,2.11,1.53,3.27,2.25,2.34,1.44,4.85,2.79,7.39,4.09,5.1,2.6,10.35,5.03,15.62,7.57,2.63,1.27,5.27,2.56,7.91,3.96,1.32.71,2.64,1.43,3.97,2.25,1.34.86,2.65,1.64,4.12,3.1.38.42.76.81,1.18,1.56.1.16.2.37.3.62.09.24.18.45.24.8.14.58.15,1.4-.07,2.14-.48,1.55-1.56,2.33-2.14,2.68-.73.44-1.24.59-1.7.75-1.79.56-3.24.78-4.76,1.04-3,.47-5.92.79-8.85,1.08-11.7,1.1-23.33,1.69-34.98,2.18-11.65.46-23.29.77-34.98.82-5.85,0-11.67,0-17.65-.34-1.53-.11-2.96-.18-4.78-.52-.24-.05-.49-.1-.8-.19-.33-.12-.63-.14-1.42-.62-.21-.21-1.51-.77-1.69-2.98.34-2.36.36-1.27.62-2.06.16-.28.56-.78.61-.8l.36-.33c.96-.84,1.57-1.18,2.28-1.64,2.69-1.64,5.26-2.97,7.87-4.33,10.34-5.38,20.82-10.42,30.41-16.4,2.34-1.5,4.7-3.1,6.48-4.76.9-.79,1.53-1.77,1.35-1.66l.13-1.75c.04-.63.02-1.39.04-2.07.08-5.64-.12-11.47-.31-17.24-.41-11.57-1.04-23.15-1.79-34.71-.76-11.56-1.61-23.13-2.74-34.64-.58-5.75-1.18-11.5-1.93-17.2-.74-5.68-1.6-11.44-2.89-16.7l-.54-1.88-.26-.94-.35-.81c-.44-1.08-1.11-2.11-1.8-3.13-1.46-2.02-3.36-3.9-5.43-5.7-4.16-3.59-8.96-6.86-13.66-10.43-4.71-3.57-9.39-7.45-13.5-12.07-4.08-4.61-7.56-9.98-9.75-15.88-1.15-2.93-1.92-5.98-2.48-9.05l-.37-2.31c-.07-.79-.05-1.63-.08-2.44l-.03-2.46c-.01-.83.07-1.5.1-2.26.28-5.94.84-11.73,1.36-17.56,1.15-11.6,2.39-23.17,3.73-34.73l4.1-34.65,4.46-34.59c1.51-11.53,3.01-23.05,4.65-34.56l2.43-17.27,1.22-8.63.62-4.32.31-2.16c.12-.83.26-1.74.41-2.6Z"/>
  <path class="st0" d="M169.55,61.62c-12.67,0-24.51-.73-32.04-2.03-5.62-.98-12.03-2.66-11.65-7.1.11-1.32,1.29-2.28,2.6-2.19,1.18.1,2.09,1.05,2.19,2.19.48.41,2.7,1.79,11.4,2.91,22.89,2.93,60.89.83,65.31-1.92.53-.92,1.63-1.42,2.7-1.13,1.28.34,2.05,1.65,1.71,2.94-.44,1.65-1.34,5.09-30.47,6.13-3.93.14-7.88.21-11.75.21Z"/>
  <path class="st0" d="M162.33,161.08c-23.51,0-45.75-2.15-48.77-8.54-.57-1.2-.05-2.63,1.15-3.2,1.19-.57,2.63-.05,3.2,1.15.03.06.79,1.54,7.35,2.99,25.81,5.7,87.92,1.6,94.29-2.16.3-.83,1.04-1.46,1.97-1.57,1.32-.17,2.52.77,2.68,2.09.39,3.16-3.59,4.31-5.3,4.8-7.75,2.24-32.81,4.44-56.57,4.44Z"/>
  <path class="st0" d="M124.42,218.82s-.09,0-.13,0c-1.33-.07-2.34-1.2-2.27-2.53,1.05-19.63,14.13-131.29,14.69-136.03.15-1.32,1.35-2.26,2.67-2.11,1.32.15,2.26,1.35,2.11,2.67-.14,1.16-13.62,116.25-14.66,135.73-.07,1.28-1.13,2.28-2.4,2.28Z"/>
  <path class="st0" d="M204.3,123.09c-1.25,0-2.31-.97-2.4-2.24l-2.22-32.24c-.09-1.32.91-2.47,2.23-2.56,1.34-.08,2.47.91,2.56,2.23l2.22,32.24c.09,1.32-.91,2.47-2.23,2.56-.06,0-.11,0-.17,0Z"/>
  <path class="st0" d="M116.24,152.89c-.47,0-.95-.14-1.38-.43-1.1-.74-1.35-2.29-.61-3.4,1.05-1.57,12.82-15,100.5-4.04,1.32.17,2.25,1.36,2.09,2.68-.17,1.32-1.36,2.25-2.68,2.09-84.04-10.5-95.89,1.95-96,2.07-.45.67-1.17,1.02-1.91,1.02Z"/>
  <path class="st0" d="M246.84,149.92c-.85,0-1.67-.45-2.11-1.25-.64-1.16-.21-2.62.95-3.26,11.86-6.51,101.95-9.1,108.6-5.19,1.14.67,1.52,2.15.85,3.29-.67,1.15-2.15,1.52-3.29.85-7.2-3.19-93.76-.28-103.85,5.26-.37.2-.76.3-1.15.3Z"/>
  <path class="st0" d="M125.25,240.59c1.12,12.86,7.11,25.71,17.21,32.41,5.04,3.36,11.02,5.02,17.23,5.41,3.08.33,6.33-.1,9.52-.23,1.58-.2,3.13-.51,4.7-.74,1.59-.17,3.08-.66,4.59-1.11,6.01-1.76,11.72-4.56,16.43-8.69,4.73-4.08,8.63-9.17,11.6-14.86,2.96-5.69,5.1-11.92,6.3-18.39,1.29-6.46,1.7-13.12,1.64-19.82v-.05c-.01-1.33,1.05-2.42,2.38-2.43,1.23-.01,2.26.91,2.41,2.1.9,7,.88,14.13.08,21.24-.8,7.11-2.74,14.17-5.85,20.78-3.09,6.61-7.42,12.81-13,17.8-5.5,5.11-12.39,8.63-19.49,10.73-1.78.55-3.56,1.12-5.39,1.35-1.82.3-3.64.67-5.46.9-3.67.13-7.27.55-11.05.15-7.46-.46-15.07-2.91-21.34-7.4-6.28-4.53-10.75-10.98-13.62-17.75-1.34-3.44-2.41-6.95-2.99-10.54-.62-3.58-.93-7.21-.69-10.86.09-1.33,1.23-2.33,2.56-2.25,1.2.08,2.14,1.03,2.24,2.19v.05Z"/>
  <path class="st0" d="M235.43,51.05l9.49,68.8c3.26,22.99,6.52,45.98,9.96,68.93,1.71,11.48,3.51,22.93,5.41,34.35,1.01,5.68,1.96,11.4,3.16,16.95.15.68.27,1.43.44,2.06l.51,1.82.49,1.83.81,1.84c1.12,2.44,2.41,4.79,3.98,6.94,3.05,4.38,7.03,8.03,11.53,11.08,4.53,3.03,9.58,5.42,14.84,7.6,5.27,2.2,10.77,4.13,16.28,6.8,2.75,1.35,5.51,2.91,8.09,4.99,1.27,1.07,2.51,2.23,3.59,3.59l.8,1.02c.24.34.42.68.63,1.03l1.23,2.06c2.99,5.44,5.24,10.81,7.47,16.25,2.22,5.43,4.28,10.89,6.31,16.36,4.04,10.94,7.82,21.96,11.5,33,3.68,11.05,7.23,22.13,10.59,33.29,1.67,5.6,3.33,11.15,4.77,16.93l.54,2.17.45,2.53c.02.25.09.33.08.73,0,.36-.03.73-.07,1.09-.08.72-.28,1.14-.44,1.71-.37.94-.79,1.77-1.24,2.48-1.78,2.89-3.78,5.08-5.81,7.32-8.17,8.69-17.06,16.22-25.64,23.99-2.13,1.93-4.28,3.88-6.18,5.83-.45.48-.89.97-1.18,1.33-.02.05-.05.09-.09.13-.07.11.14-.23.15-.36,0-.58.15.53-.06-1.43-.62-1.7-1.69-1.78-1.75-1.87-.27-.08-.33-.07-.35-.08-.07,0,.04,0,.13,0,.99-.04,2.49-.3,3.82-.56,5.53-1.1,11.16-2.57,16.73-4.04,11.17-2.98,22.3-6.22,33.38-9.6,11.07-3.4,22.12-6.91,32.94-10.86,2.69-.99,5.38-2.02,7.95-3.13,1.27-.55,2.57-1.15,3.58-1.75.24-.14.47-.3.55-.37.06-.03,0-.09-.19.37-.06.18-.12.61-.06.88.04.17.09.29.11.38.05.1.11.19.12.21.16.18.06.07-.07-.02-.66-.44-2-.96-3.25-1.34-1.29-.4-2.65-.76-4.02-1.09-2.75-.66-5.57-1.22-8.41-1.78-5.67-1.11-11.4-2.13-17.15-3.37-2.88-.63-5.75-1.3-8.65-2.17-1.45-.43-2.9-.92-4.38-1.54-1.48-.68-2.99-1.27-4.63-2.96-.35-.43-.63-.89-.92-1.35-.26-.44-.38-.77-.58-1.16-.39-.77-.63-1.47-.92-2.19-.56-1.43-1.03-2.84-1.49-4.25-.92-2.82-1.73-5.63-2.52-8.45-1.57-5.64-3-11.29-4.39-16.95-2.77-11.32-5.3-22.67-7.72-34.06-2.41-11.39-4.69-22.79-6.73-34.27-1.01-5.74-1.98-11.49-2.73-17.33-.17-1.47-.35-2.93-.46-4.45-.07-.74-.1-1.54-.12-2.34-.03-.36,0-.87.05-1.36.01-.48.11-.97.26-1.45.55-1.85,1.33-3.18,2.1-4.53.79-1.31,1.61-2.57,2.45-3.79,6.75-9.65,13.87-18.68,19.55-28.59,2.83-4.93,5.35-10.03,7.02-15.31,1.71-5.26,2.47-10.76,1.5-15.94l-1.02-3.96-1.31-4.09c-.84-2.73-1.84-5.45-2.78-8.18-1.9-5.45-3.93-10.89-5.94-16.32-4.06-10.86-8.23-21.69-12.45-32.5-8.42-21.63-17.06-43.19-25.77-64.71l-13.12-32.27-6.6-16.11c-.27-.66-.52-1.25-.73-1.59-.22-.36-.3-.41-.46-.52-.3-.23-1.47-.48-2.72-.51-2.56-.09-5.4.15-8.19.46-11.25,1.37-22.58,3.9-33.64,6.86-5.53,1.51-11.02,3.18-16.32,5.15-2.64.99-5.25,2.06-7.65,3.28-1.2.6-2.33,1.27-3.27,1.95-.41.33-.89.7-1.05.93-.36.28,0,.37-.11-.48ZM228.74,51.51c.05-2.29,1.06-3.58,1.72-4.33.76-.9,1.46-1.39,2.18-1.97,1.42-1.01,2.82-1.79,4.21-2.49,2.79-1.4,5.57-2.5,8.38-3.53,5.6-2.04,11.25-3.71,16.93-5.22,11.38-2.96,22.81-5.44,34.63-6.81,2.98-.31,5.94-.57,9.19-.43,1.63.14,3.46.18,5.67,1.48,1.08.66,1.98,1.73,2.48,2.63.52.91.81,1.68,1.09,2.36l6.5,16.18,12.9,32.38c8.56,21.6,17.05,43.23,25.43,64.91,4.18,10.84,8.32,21.71,12.36,32.62,2,5.47,4.02,10.92,5.92,16.44.94,2.77,1.94,5.49,2.8,8.32l1.33,4.21,1.12,4.49c1.14,6.28.17,12.65-1.72,18.38-1.86,5.79-4.55,11.15-7.51,16.28-5.92,10.25-13.27,19.49-19.86,28.84-.81,1.17-1.58,2.35-2.29,3.52-.69,1.15-1.33,2.39-1.61,3.32-.07.21-.13.44-.12.69-.01.24-.05.45-.03.82.02.65.03,1.3.1,2.01.1,1.38.29,2.8.45,4.21.75,5.67,1.74,11.38,2.77,17.07,2.07,11.39,4.4,22.75,6.85,34.08,2.46,11.33,5.04,22.63,7.83,33.87,1.4,5.62,2.85,11.22,4.42,16.76.79,2.77,1.6,5.53,2.49,8.23.44,1.35.9,2.69,1.41,3.96.25.63.5,1.3.77,1.82.13.26.27.61.39.79.11.14.2.32.29.46.37.43,1.56,1.11,2.73,1.58,1.2.5,2.5.94,3.84,1.33,2.67.79,5.45,1.43,8.25,2.03,5.61,1.19,11.32,2.18,17.05,3.28,2.87.55,5.74,1.11,8.64,1.79,1.45.34,2.91.71,4.39,1.17,1.5.5,2.95.91,4.74,2.04.46.33.96.66,1.52,1.45.13.16.27.41.39.68.12.24.22.54.28.89.14.62.05,1.44-.15,1.95-.44,1.14-1.01,1.64-1.5,2.08-.48.39-.86.63-1.24.87-1.49.89-2.84,1.49-4.22,2.11-2.75,1.21-5.49,2.26-8.24,3.29-10.99,4.06-22.07,7.63-33.19,11.1-11.12,3.45-22.29,6.75-33.55,9.8-5.65,1.51-11.26,3-17.11,4.21-1.52.28-2.88.58-4.79.69-.28,0-.53.02-.96-.03-.2-.02-.45-.05-.89-.18-.24-.14-1.49-.32-2.16-2.19-.26-2.14.02-1.2.07-1.95.08-.29.31-.82.36-.86l.5-.78c.6-.79,1.14-1.37,1.68-1.95,2.15-2.23,4.3-4.18,6.46-6.17,8.59-7.86,17.41-15.44,25.12-23.73,1.86-2.06,3.75-4.23,5-6.31.33-.52.54-1,.72-1.41.01-.13.14-.39.1-.39-.01,0,0,0,.01,0,.04.04-.04-.24-.06-.34l-.33-1.75-.52-2.05c-1.4-5.48-3.09-11.05-4.77-16.58-3.39-11.06-6.99-22.08-10.71-33.06-3.73-10.97-7.54-21.91-11.6-32.74-2.05-5.4-4.11-10.8-6.32-16.11-2.19-5.28-4.5-10.64-7.13-15.35l-1.01-1.68c-.17-.27-.33-.58-.5-.83l-.55-.69c-.73-.92-1.63-1.74-2.58-2.54-1.96-1.56-4.28-2.89-6.75-4.08-4.96-2.38-10.44-4.3-15.9-6.53-5.47-2.24-10.99-4.79-16.15-8.2-5.13-3.42-9.87-7.71-13.5-12.86-1.86-2.54-3.4-5.29-4.71-8.12l-.95-2.14c-.25-.77-.47-1.57-.69-2.36l-.66-2.38c-.2-.78-.31-1.46-.47-2.2-1.24-5.82-2.19-11.55-3.2-17.31-1.89-11.5-3.68-22.99-5.37-34.49-3.42-23-6.64-46.01-9.73-69.04l-9.12-69.32Z"/>
  <path class="st0" d="M240.23,56.45c-3.41,0-6.16-.39-7.87-1.32-1.86-1-2.46-2.42-2.64-3.43-.23-1.31.64-2.55,1.95-2.78,1.27-.22,2.49.6,2.76,1.86,4.22,4.51,51.13-6.99,58.5-10.17,1.23-.53,2.63.04,3.16,1.25.52,1.22-.04,2.63-1.26,3.16-3.18,1.37-37.35,11.43-54.6,11.43Z"/>
  <path class="st0" d="M285.64,157.93c-16.79,0-37.97-1.58-42.52-9.17-.68-1.14-.31-2.61.83-3.3,1.14-.68,2.61-.31,3.3.83.84,1.4,5.63,6.04,31.91,6.75,33.02.89,69.86-5.04,73.69-9.12-.08-1.08.58-2.12,1.66-2.47,1.26-.41,2.62.29,3.02,1.55.55,1.71.2,4.2-4.62,6.39-8.99,4.08-33.34,7.61-57.91,8.39-2.83.09-6,.15-9.35.15Z"/>
  <path class="st0" d="M270.45,212.9c-1.11,0-2.11-.78-2.35-1.91-4.03-19.25-7.84-47.88-7.88-48.17-.17-1.32.75-2.52,2.07-2.7,1.31-.17,2.52.75,2.7,2.07.04.29,3.82,28.74,7.82,47.81.27,1.3-.56,2.57-1.86,2.84-.17.03-.33.05-.49.05Z"/>
  <path class="st0" d="M332.89,117.35c-1,0-1.93-.63-2.28-1.63l-10.43-30.59c-.43-1.26.24-2.62,1.5-3.05,1.26-.42,2.62.24,3.05,1.5l10.43,30.59c.43,1.26-.24,2.62-1.5,3.05-.26.09-.52.13-.78.13Z"/>
  <path class="st0" d="M369.84,456.35c-1.09,0-2.08-.75-2.34-1.85-.3-1.29.5-2.58,1.79-2.89,23.95-5.62,61.26-17.14,65.86-25.84.45-.85.36-1.35.23-1.7-.47-1.24.14-2.63,1.38-3.1,1.24-.47,2.63.14,3.1,1.38.7,1.81.53,3.77-.47,5.67-7.1,13.4-62.69,26.78-69.01,28.27-.18.04-.37.06-.55.06Z"/>
  <path class="st0" d="M272.78,209.91c2.58,6.92,5.19,13.73,8.35,20.13,3.21,6.35,7.01,12.32,11.81,16.85,4.82,4.46,10.44,7.64,16.89,8.47,3.16.62,6.53.56,9.89.39,3.41-.26,6.77-1,10.11-1.71,6.56-1.72,12.62-4.68,17.33-9.19,4.76-4.44,8.05-10.43,9.92-17.01,1.97-6.57,2.54-13.71,2.35-20.87-.23-7.17-1.16-14.4-2.5-21.62v-.04c-.25-1.31.61-2.56,1.92-2.8,1.21-.23,2.38.5,2.74,1.65,2.26,7.23,4,14.69,4.81,22.37.87,7.66.67,15.6-1.12,23.46-1.85,7.78-5.5,15.61-11.5,21.56-5.93,5.98-13.56,9.98-21.36,12.11-3.92.9-7.85,1.77-11.86,2.11-4.05.26-8.19.36-12.36-.38-8.36-1.22-16.39-5.66-22.06-11.7-1.47-1.47-2.67-3.13-4-4.69-1.15-1.66-2.24-3.36-3.3-5.06l-2.77-5.26c-.79-1.79-1.52-3.61-2.28-5.4-2.76-7.27-4.49-14.73-5.68-22.2-.21-1.32.69-2.55,2-2.76,1.15-.18,2.25.48,2.64,1.54l.02.06Z"/>
</svg>